<svg id="component-favourite-icon" xmlns="http://www.w3.org/2000/svg" width="40" height="40" viewBox="0 0 40 40">
  <rect id="Rectangle_351" data-name="Rectangle 351" width="40" height="40" opacity="0"/>
  <g id="Group_650" data-name="Group 650" transform="translate(-859.676 685.879)">
    <g id="Group_746" data-name="Group 746" transform="translate(869.676 -673.879)">
      <g id="Path_1" data-name="Path 1" transform="translate(-869.676 673.879)" fill="none" stroke-miterlimit="10" fill-rule="evenodd">
        <path d="M878.708-672.382a5.067,5.067,0,0,0-7.189,0l-.16.161a5.8,5.8,0,0,0,0,8.167l8.006,8.046a.44.44,0,0,0,.625,0l8.006-8.046a5.8,5.8,0,0,0,0-8.167l-.16-.161a5.064,5.064,0,0,0-7.189,0l-.811.815a.223.223,0,0,1-.314,0Z" stroke="none"/>
        <path d="M 884.2376098632813 -671.8785400390625 C 883.4161987304688 -671.8785400390625 882.6432495117188 -671.5562744140625 882.060791015625 -670.970947265625 L 881.2522583007813 -670.1586303710938 C 880.8324584960938 -669.7355346679688 880.2726440429688 -669.5025634765625 879.6759033203125 -669.5025634765625 C 879.0816650390625 -669.5025634765625 878.5233764648438 -669.7337646484375 878.1005249023438 -670.1568603515625 L 877.2905883789063 -670.97119140625 C 876.7088012695313 -671.5558471679688 875.9357299804688 -671.8778076171875 875.1137084960938 -671.8778686523438 C 874.2916870117188 -671.8778686523438 873.5186767578125 -671.555908203125 872.9347534179688 -670.968994140625 L 872.7769775390625 -670.8109130859375 C 871.3103637695313 -669.33642578125 871.3096923828125 -666.9381713867188 872.7753295898438 -665.4649658203125 L 879.675537109375 -658.5302124023438 L 886.5756225585938 -665.46484375 C 888.0415649414063 -666.9382934570313 888.0409545898438 -669.3364868164063 886.5765991210938 -670.8084106445313 L 886.4140014648438 -670.9713134765625 C 885.8319702148438 -671.5563354492188 885.0590209960938 -671.8785400390625 884.2376098632813 -671.8785400390625 M 884.2376098632813 -673.8785400390625 C 885.538330078125 -673.8785400390625 886.8394165039063 -673.37939453125 887.8318481445313 -672.3818969726563 L 887.9921264648438 -672.2213134765625 C 890.2373657226563 -669.9644165039063 890.2369384765625 -666.3092651367188 887.9934692382813 -664.0542602539063 L 879.9879150390625 -656.0086059570313 C 879.9014282226563 -655.9217529296875 879.7886352539063 -655.8785400390625 879.6758422851563 -655.8785400390625 C 879.5628051757813 -655.8785400390625 879.44970703125 -655.9219970703125 879.3632202148438 -656.0086059570313 L 871.3576049804688 -664.0542602539063 C 869.1155395507813 -666.3079223632813 869.1151123046875 -669.96533203125 871.3589477539063 -672.2213134765625 L 871.5192260742188 -672.3818969726563 C 872.5112915039063 -673.3790893554688 873.8124389648438 -673.8778686523438 875.1137084960938 -673.8778686523438 C 876.4146728515625 -673.8778076171875 877.7158203125 -673.3792724609375 878.7083129882813 -672.3818969726563 L 879.5185546875 -671.5672607421875 C 879.5614624023438 -671.5242919921875 879.61865234375 -671.5025634765625 879.6759033203125 -671.5025634765625 C 879.732666015625 -671.5025634765625 879.7894897460938 -671.52392578125 879.8324584960938 -671.5672607421875 L 880.643310546875 -672.3818969726563 C 881.6363525390625 -673.3798828125 882.9368286132813 -673.8785400390625 884.2376098632813 -673.8785400390625 Z" stroke="none" fill="#f5f4f4"/>
      </g>
    </g>
    <g id="Group_174" data-name="Group 174" transform="translate(869.676 -673.878)">
      <path id="Path_1-2" data-name="Path 1" d="M878.708-672.382a5.067,5.067,0,0,0-7.189,0l-.16.161a5.8,5.8,0,0,0,0,8.167l8.006,8.046a.44.44,0,0,0,.625,0l8.006-8.046a5.8,5.8,0,0,0,0-8.167l-.16-.161a5.064,5.064,0,0,0-7.189,0l-.811.815a.223.223,0,0,1-.314,0Z" transform="translate(-869.676 673.879)" fill="none" stroke="#000" stroke-miterlimit="10" stroke-width="1" fill-rule="evenodd"/>
    </g>
  </g>
</svg>
