<svg id="Component-bag-icon" xmlns="http://www.w3.org/2000/svg" width="40" height="40" viewBox="0 0 40 40">
  <rect id="Rectangle_352" data-name="Rectangle 352" width="40" height="40" opacity="0"/>
  <path id="Path_155" data-name="Path 155" d="M-346.467,28.2h-3.252V26.8A4.718,4.718,0,0,0-354.4,22.07a4.718,4.718,0,0,0-4.679,4.725v1.4h-3.252a.419.419,0,0,0-.421.421V42.773a1.583,1.583,0,0,0,1.567,1.567h13.568a1.583,1.583,0,0,0,1.567-1.567V28.644A.44.44,0,0,0-346.467,28.2Zm-11.743-1.427a3.844,3.844,0,0,1,3.813-3.883,3.844,3.844,0,0,1,3.813,3.883v1.4h-7.626Zm10.6,16.726h-13.568a.689.689,0,0,1-.7-.7V29.065h2.807v4.187a.419.419,0,0,0,.421.421.419.419,0,0,0,.421-.421V29.065h7.65v4.187a.419.419,0,0,0,.421.421.419.419,0,0,0,.421-.421V29.065h2.831V42.8A.689.689,0,0,1-347.614,43.5Z" transform="translate(374.446 -14.141)"/>
</svg>
