<svg id="component-logo" xmlns="http://www.w3.org/2000/svg" width="240.467" height="34.023" viewBox="0 0 240.467 34.023">
  <g id="Group_1396" data-name="Group 1396" transform="translate(-25.979 -37.201)">
    <path id="Path_399" data-name="Path 399" d="M642.278,46.944h0a13.112,13.112,0,0,0-3.018-5.286,13.559,13.559,0,0,0-5.253-3.328,21.824,21.824,0,0,0-7.4-1.129H613.715V71.225h11.327a23.422,23.422,0,0,0,6.043-.843,16.673,16.673,0,0,0,5.925-2.951,16.108,16.108,0,0,0,4.439-5.492,18.165,18.165,0,0,0,1.741-8.294A23.078,23.078,0,0,0,642.278,46.944ZM620.39,41.578h4.51c5.555,0,8.972,1.942,10.754,6.112a15.577,15.577,0,0,1,.883,5.955A16.876,16.876,0,0,1,635.4,60.4a10.56,10.56,0,0,1-2.866,3.951,9.662,9.662,0,0,1-3.954,1.942,20.807,20.807,0,0,1-4.734.553H620.39Z" transform="translate(-410.869 0)"/>
    <path id="Path_400" data-name="Path 400" d="M751.292,37.2l-8.046,14.255L734.581,37.2h-7.728l11.86,19.556V71.225h6.621V56.872L756.407,37.2Z" transform="translate(-489.961)"/>
    <path id="Path_401" data-name="Path 401" d="M39.588,52.053,53.152,37.2H46.708L32.654,52.558V37.2H25.979V71.225h6.676V59.642l2.267-2.5L46.044,71.225h8.681Z" transform="translate(0)"/>
    <path id="Path_402" data-name="Path 402" d="M153.279,67.277l-.047-11.151h12.115V52.035H153.28v-9.52h16.243V38.074H146.618V71.592h23.135v-4.3Z" transform="translate(-84.335 -0.611)"/>
    <path id="Path_403" data-name="Path 403" d="M276.318,37.2V59.269L253.972,37.307l-.108-.106h-1.569l0,34.024h4.515V49.267l22.036,21.85.108.108h1.694V37.2Z" transform="translate(-158.211)"/>
    <path id="Path_404" data-name="Path 404" d="M403.074,37.2V59.269L380.728,37.307l-.108-.106h-1.569l0,34.024h4.515V49.267l22.036,21.85.108.108h1.694V37.2Z" transform="translate(-246.822)"/>
    <path id="Path_405" data-name="Path 405" d="M513.117,67.277l-.047-11.151h12.115V52.035H513.118v-9.52h16.243V38.074H506.456V71.592h23.135v-4.3Z" transform="translate(-335.888 -0.611)"/>
  </g>
</svg>
