<svg xmlns="http://www.w3.org/2000/svg" width="185.528" height="35.431" viewBox="0 0 185.528 35.431">
  <g id="logo-ulyssenardin" transform="translate(-375.662 246.828)">
    <path id="Path_305" data-name="Path 305" d="M481.87-246.828c.506.275,1.036.512,1.51.832a3.038,3.038,0,0,1,1.22,1.875,3.628,3.628,0,0,1-1.022,3.6,5.716,5.716,0,0,1-1.254.768,3.2,3.2,0,0,1-.455.186c0,.477.022.9-.006,1.318-.023.341.155.459.44.513,2.119.41,4.238.819,6.373,1.327l-6.581,1.361c.018.374.035.7.049,1.033.063,1.442.12,2.883.186,4.325.055,1.182.122,2.363.182,3.544.063,1.243.121,2.485.186,3.727.059,1.136.116,2.272.184,3.406.058.965.129,1.93.2,2.919a22.688,22.688,0,0,0,7.646-.952l-.456-1.121c.533-.036,1.038-.08,1.544-.1,1.6-.067,3.2-.125,4.794-.186.152-.005.306,0,.594,0l-5.279,4.155-.526-1.2c-1.586.642-3.154,1.278-4.723,1.91-1.75.7-3.5,1.4-5.251,2.114a1.414,1.414,0,0,1-1.128-.094q-4.848-1.963-9.684-3.915l-.521,1.19-5.208-4.07.038-.125,6.79.3-.473,1.173c.835.2,1.619.432,2.419.577a23.215,23.215,0,0,0,4.753.389c.417-.01.512-.162.524-.533.048-1.488.111-2.975.181-4.462.052-1.121.121-2.241.182-3.361q.093-1.726.185-3.452c.06-1.1.119-2.21.184-3.315.075-1.267.158-2.534.24-3.847l-6.762-1.381,0-.088,6.937-1.351c.049-.465.089-.886.141-1.3.037-.3-.059-.44-.38-.533a3.8,3.8,0,0,1-2.506-3.438,3.738,3.738,0,0,1,2.654-3.617.537.537,0,0,0,.139-.089Zm-.962,2.113A1.888,1.888,0,0,0,479.2-243a1.88,1.88,0,0,0,1.758,1.755,1.831,1.831,0,0,0,1.723-1.771A1.907,1.907,0,0,0,480.908-244.715Z" transform="translate(-14.655 0)" fill="#828282"/>
    <path id="Path_306" data-name="Path 306" d="M375.662-232.215h4.273c-.148.46-.3.9-.429,1.344a1.721,1.721,0,0,0-.069.488c-.005,1.683.01,3.366-.008,5.05a2.2,2.2,0,0,0,1.516,2.307,4.858,4.858,0,0,0,4.54-.368,1.909,1.909,0,0,0,.838-1.7c.033-1.805.046-3.612-.009-5.416a7.707,7.707,0,0,0-.43-1.671h4.175c-.141.4-.294.806-.427,1.218a1.623,1.623,0,0,0-.074.486c-.005,1.912,0,3.825-.005,5.737a4.91,4.91,0,0,1-2.748,4.458,8,8,0,0,1-4.553.912,7.039,7.039,0,0,1-3.926-1.275,4.728,4.728,0,0,1-2.1-3.656c-.074-2.1-.089-4.21-.092-6.316a2.267,2.267,0,0,0-.471-1.411Z" transform="translate(0 -2.4)" fill="#828282"/>
    <path id="Path_307" data-name="Path 307" d="M594.712-219.446c-1.213,0-2.372,0-3.532-.008a.489.489,0,0,1-.3-.169c-.577-.623-1.138-1.261-1.717-1.883-1.306-1.4-2.623-2.8-3.928-4.2-.484-.52-.949-1.057-1.466-1.636-.017.162-.037.272-.037.383,0,2.034-.028,4.07.018,6.1a5.354,5.354,0,0,0,.42,1.379H579.9c.148-.459.325-.928.444-1.412a3.06,3.06,0,0,0-.018-.7c0-2.923-.008-5.844.005-8.767a2.214,2.214,0,0,0-.589-1.763c1.355,0,2.607,0,3.859.006a.482.482,0,0,1,.313.14c1.154,1.231,2.3,2.47,3.448,3.7.487.524.98,1.043,1.472,1.564.669.708,1.339,1.414,2.046,2.162.011-.16.027-.285.027-.411,0-1.713-.011-3.427.006-5.14a2.867,2.867,0,0,0-.611-2.078h4.374c-.125.331-.262.654-.366.987a1.933,1.933,0,0,0-.086.573c-.005,3.091,0,6.181-.009,9.272a2.711,2.711,0,0,0,.376,1.549A1.842,1.842,0,0,1,594.712-219.446Z" transform="translate(-33.523 -2.408)" fill="#828282"/>
    <path id="Path_308" data-name="Path 308" d="M534.459-232.221c3.06,0,5.976-.078,8.884.026a4.615,4.615,0,0,1,4.413,3.728,4.9,4.9,0,0,1-2.313,5.389l3.314,3.584c-.2.016-.33.035-.456.035-1.2,0-2.391,0-3.587,0a.819.819,0,0,1-.762-.333c-.507-.643-1.117-1.2-1.681-1.8-.155-.165-.291-.346-.436-.52a.886.886,0,0,0-.77-.386c-.872.033-1.744.011-2.672.011.006,1.035-.2,2.073.633,3h-4.6c.773-.694.637-1.548.638-2.369,0-2.524.009-5.048,0-7.572C535.059-230.369,535.27-231.356,534.459-232.221Zm3.941,6.428c1.552,0,3.053-.038,4.55.014a1.64,1.64,0,0,0,1.613-1.575,1.633,1.633,0,0,0-1.633-1.567c-1.377.018-2.755,0-4.133.006-.131,0-.263.017-.4.026Z" transform="translate(-26.079 -2.395)" fill="#828282"/>
    <path id="Path_309" data-name="Path 309" d="M505.932-224.664v-4.993a7.481,7.481,0,0,0-.018-1.328,6.872,6.872,0,0,0-.452-1.209h4.347a1.455,1.455,0,0,0-.153.272,6.146,6.146,0,0,0-.393,1.5c-.039,2.662-.025,5.325-.015,7.986,0,1-.191,2.044.663,2.984a18.284,18.284,0,0,0-2.495.023,2.4,2.4,0,0,1-2.3-1.055c-.687-.791-1.415-1.548-2.128-2.317q-1.785-1.923-3.572-3.844a3.675,3.675,0,0,0-.663-.641v.436c0,1.835.007,3.672,0,5.508a2.22,2.22,0,0,0,.643,1.849h-4.543c.8-.933.58-2.034.587-3.091q.021-3.328,0-6.656c0-.971.171-1.979-.577-2.882,1.361,0,2.628-.013,3.893.016.17,0,.359.2.5.349.506.544.983,1.114,1.489,1.657,1.008,1.08,2.033,2.144,3.04,3.224.694.742,1.37,1.5,2.054,2.251Z" transform="translate(-19.578 -2.404)" fill="#828282"/>
    <path id="Path_310" data-name="Path 310" d="M553.063-219.516a3.087,3.087,0,0,0,.519-2.039c-.023-2.63,0-5.261-.014-7.891-.006-.934.213-1.918-.591-2.77H554.5c2.022,0,4.046-.028,6.067.011a6.643,6.643,0,0,1,3.223.725,6.157,6.157,0,0,1,3.408,5.507,6.074,6.074,0,0,1-1.2,3.929,5.535,5.535,0,0,1-4.163,2.47c-2.9.134-5.808.083-8.713.108C553.109-219.466,553.1-219.483,553.063-219.516Zm3.854-9.395v6.151c1.285,0,2.541.045,3.793-.014a3.018,3.018,0,0,0,2.521-1.432,3.03,3.03,0,0,0-2.342-4.681A37.618,37.618,0,0,0,556.918-228.911Z" transform="translate(-29.126 -2.398)" fill="#828282"/>
    <path id="Path_311" data-name="Path 311" d="M468.542-227.357v3.035h-6.2v1.757h.485c1.671,0,3.341,0,5.012,0a3.622,3.622,0,0,0,2.447-.538v3.632H458.414a2.427,2.427,0,0,0,.342-.531,3.861,3.861,0,0,0,.228-1.09c.018-3.028,0-6.057.014-9.085a2.663,2.663,0,0,0-.624-1.99h11.914v3.695a3.711,3.711,0,0,0-2.755-.613q-2.345,0-4.69,0h-.515v1.728Z" transform="translate(-13.586 -2.408)" fill="#828282"/>
    <path id="Path_312" data-name="Path 312" d="M453.26-231.241l-1.5,3.31c-1.115-1.2-2.588-1.249-4.045-1.387a7.389,7.389,0,0,0-2.858.213,1.108,1.108,0,0,0-.679.669c-.076.384.352.6.68.661.932.168,1.875.281,2.816.389a11.771,11.771,0,0,1,4.444,1.039,2.792,2.792,0,0,1,1.5,2.358c.209,2.233-1.311,3.523-3.024,4.135a10.386,10.386,0,0,1-4.571.382,16.191,16.191,0,0,1-4.67-1.256,5.725,5.725,0,0,0-1.139-.207l1.852-3.376c.256.257.436.562.7.677a15.761,15.761,0,0,0,2.386.874,7.732,7.732,0,0,0,4.464-.127A.765.765,0,0,0,450-223.1c.133-.2.316-.465.27-.653a.864.864,0,0,0-.529-.483,5.661,5.661,0,0,0-1.2-.2c-1.1-.1-2.2-.16-3.3-.287a6.607,6.607,0,0,1-3.282-1.133,3.193,3.193,0,0,1-.878-3.849,4.21,4.21,0,0,1,3.522-2.532,9.756,9.756,0,0,1,1.8-.181,17.675,17.675,0,0,1,5.5.912A10.82,10.82,0,0,0,453.26-231.241Z" transform="translate(-10.604 -2.366)" fill="#828282"/>
    <path id="Path_313" data-name="Path 313" d="M424.061-224.264c1.072,1.226,2.531,1.427,3.982,1.673a8.235,8.235,0,0,0,3.069-.111,3.047,3.047,0,0,0,.948-.4.533.533,0,0,0-.067-.993,6.226,6.226,0,0,0-1.483-.33c-1.113-.122-2.237-.151-3.346-.3a6.594,6.594,0,0,1-3.339-1.22,3.2,3.2,0,0,1-1.005-2.867,4.164,4.164,0,0,1,3.947-3.418,16.65,16.65,0,0,1,3.394-.071,35.236,35.236,0,0,1,3.684.8c.438.1.882.17,1.371.264-.235.521-.483,1.076-.735,1.631s-.508,1.1-.784,1.706a4.134,4.134,0,0,0-2.974-1.306,8.294,8.294,0,0,0-1.617-.171,12.573,12.573,0,0,0-2.279.283c-.276.063-.483.426-.721.652.221.224.4.566.669.648a9.78,9.78,0,0,0,1.814.323,20.97,20.97,0,0,1,4.624.739,3.165,3.165,0,0,1,2.329,2.226,3.534,3.534,0,0,1-1.417,3.824,6.691,6.691,0,0,1-3.387,1.214,14.41,14.41,0,0,1-7.39-1.282,5.942,5.942,0,0,0-1.1-.242Z" transform="translate(-7.653 -2.377)" fill="#828282"/>
    <path id="Path_314" data-name="Path 314" d="M514.253-219.495a2.987,2.987,0,0,1,.116-.351c.868-1.8,1.746-3.592,2.609-5.392.8-1.677,1.6-3.356,2.385-5.044.42-.909.4-.918.075-1.943,1.051,0,2.088,0,3.124,0,.46,0,1.01-.146,1.352.055.322.191.429.749.623,1.149q1.448,2.977,2.891,5.956,1.138,2.351,2.266,4.705c.127.266.221.547.348.866h-4.3c.5-.737-.053-1.273-.283-1.9H521.15a8.05,8.05,0,0,1-1.286-.012,1.137,1.137,0,0,0-1.488.934,4.681,4.681,0,0,0-.011.973Zm9.617-5.223-1.723-3.606-1.731,3.606Z" transform="translate(-22.765 -2.39)" fill="#828282"/>
    <path id="Path_315" data-name="Path 315" d="M414.67-219.471h-4.42c.775-.688.646-1.526.649-2.333a13.931,13.931,0,0,1,.013-1.651,2.525,2.525,0,0,0-.608-1.87c-1.561-2.148-3.106-4.307-4.658-6.461-.085-.118-.183-.226-.319-.393h5.023c-.577.473-.3.84-.011,1.24.733,1,1.442,2.027,2.2,3.1.6-.822,1.182-1.612,1.758-2.407a6.685,6.685,0,0,1,.537-.773.754.754,0,0,0,.043-1.155h4.916c-.313.459-.584.88-.877,1.285-1.071,1.485-2.152,2.964-3.226,4.447-.44.607-.879,1.214-1.3,1.833a.941.941,0,0,0-.166.485c-.015,1.04-.055,2.083.013,3.119A7.455,7.455,0,0,0,414.67-219.471Z" transform="translate(-4.873 -2.406)" fill="#828282"/>
    <path id="Path_316" data-name="Path 316" d="M405.763-223.2v3.723H394.918c.053-.094.1-.175.145-.256a2.943,2.943,0,0,0,.42-1.5c-.02-3.058-.016-6.117,0-9.176a2.478,2.478,0,0,0-.6-1.76h4.466a2.768,2.768,0,0,0-.259.445,3.149,3.149,0,0,0-.286.972c-.023,2.569-.013,5.138-.013,7.707,0,.075.008.15.013.249a1.265,1.265,0,0,0,.219.038c1.686,0,3.372.038,5.056-.018A8.057,8.057,0,0,0,405.763-223.2Z" transform="translate(-3.156 -2.409)" fill="#828282"/>
    <path id="Path_317" data-name="Path 317" d="M576.58-219.469h-4.587a3.486,3.486,0,0,0,.623-2.617c0-2.538-.008-5.075,0-7.614a3.431,3.431,0,0,0-.613-2.482h4.561a2.6,2.6,0,0,0-.641,2.244c0,2.8.008,5.6,0,8.393A2.445,2.445,0,0,0,576.58-219.469Z" transform="translate(-32.249 -2.406)" fill="#828282"/>
  </g>
</svg>
