<svg xmlns="http://www.w3.org/2000/svg" width="120.752" height="66.964" viewBox="0 0 120.752 66.964">
  <g id="logo-rolex" transform="translate(-237 -387.89)">
    <path id="Path_366" data-name="Path 366" d="M314.035,396.831a2.145,2.145,0,0,0-4.079.194,2.137,2.137,0,0,0,1.135,2.474l-7,15.058-.021.01q.567-10.15,1.135-20.3a2.132,2.132,0,0,0,2.045-2.9,2.144,2.144,0,0,0-4.059,1.37,2.089,2.089,0,0,0,1.462,1.451q-2.336,9.921-4.672,19.842-1.129-10.932-2.26-21.866a2.145,2.145,0,0,0,1.656-2.964,2.168,2.168,0,0,0-1.789-1.289,1.836,1.836,0,0,0-.961.154,2.129,2.129,0,0,0-1.267,2.606,2.151,2.151,0,0,0,1.216,1.35l.512.143c.05.06,0,.291-.011.389l-.1,1-.429,4.161-1.677,16.264h-.01l-4.662-19.791a1.827,1.827,0,0,0,.807-.439,2.144,2.144,0,0,0,.614-2.372,2.19,2.19,0,0,0-2.382-1.349,2.157,2.157,0,0,0-1.636,1.369,2.134,2.134,0,0,0,2.045,2.873q.561,10.145,1.124,20.292h-.01q-3.516-7.539-7.034-15.078a2.153,2.153,0,1,0-.46.173h.01l4.744,16.111,1.074,3.65q.168.572.337,1.144a3.788,3.788,0,0,0,1.043,1.5,10.537,10.537,0,0,0,.991.767,11.136,11.136,0,0,0,3.282,1.267c.469.117.969.131,1.472.215l.634.031a8.338,8.338,0,0,0,2.25-.092c.451-.081.862-.109,1.277-.215a9.737,9.737,0,0,0,3.528-1.574,5.039,5.039,0,0,0,1.308-1.472,8.6,8.6,0,0,0,.583-1.728q.511-1.737,1.022-3.476l4.744-16.09c.052-.041.458.058.624.031a2.58,2.58,0,0,0,.991-.327A2.178,2.178,0,0,0,314.035,396.831Zm-9.978,24.012c-.233.856-1.724,1.262-2.638,1.493a18.487,18.487,0,0,1-8.506-.112,3.64,3.64,0,0,1-2.1-1.145c-.44-.7.342-1.2.767-1.452a10.682,10.682,0,0,1,3.507-.94l1.257-.1.6-.021a15.215,15.215,0,0,1,5.971.93C303.347,419.681,304.243,420.159,304.057,420.843Z" fill="#828282"/>
    <path id="Path_367" data-name="Path 367" d="M287.648,433.775l10.725.01v1.544H295.4v17.317h4.846a10.3,10.3,0,0,0,2.514-.1,3.443,3.443,0,0,0,2.311-2.035,9.429,9.429,0,0,0,.235-3.086q.006-.6.01-1.2l1.544.011V454.2h-19.21v-1.554h2.975V435.329h-2.975v-1.554Z" fill="#828282"/>
    <path id="Path_368" data-name="Path 368" d="M310.089,433.785h20.294v7.023h-1.554q-.006-1.211-.01-2.423a3.463,3.463,0,0,0-1.145-2.208,3.853,3.853,0,0,0-1.514-.766,5.212,5.212,0,0,0-1.2-.072h-7.187v7.32h1.391a8.572,8.572,0,0,0,1.451-.031,2.393,2.393,0,0,0,2.045-1.809,7.556,7.556,0,0,0,.051-1.6h1.411v8.546h-1.411a7.858,7.858,0,0,0-.051-1.717,2.515,2.515,0,0,0-2.045-1.953,7.875,7.875,0,0,0-1.441-.031h-1.4v8.6h7.228a5.1,5.1,0,0,0,.91-.031,3.391,3.391,0,0,0,2.045-1.094,3.889,3.889,0,0,0,.8-1.543,5.618,5.618,0,0,0,.072-1.268V446.86h1.554v7.35H310.089v-1.543H313V435.339h-2.914v-1.554Z" fill="#828282"/>
    <path id="Path_369" data-name="Path 369" d="M334.155,433.806h10.316V435.3h-1.329l-.624.021a.756.756,0,0,0-.429.327c-.3.5.185.918.4,1.2q1.119,1.395,2.239,2.791l.93,1.155c.064.082.207.342.3.317l3.221-3.864c.271-.345,1.147-1.008.726-1.636-.311-.463-1.625-.311-2.4-.307v-1.492h8.241V435.3a7.24,7.24,0,0,0-2.372.185,4.371,4.371,0,0,0-1.7,1.5c-.876,1.113-1.871,2.138-2.74,3.261l-1.473,1.738c-.078.1-.453.5-.388.562l2.341,2.914,3.721,4.63A9.538,9.538,0,0,0,355.3,452.4a5.217,5.217,0,0,0,2.454.327v1.492l-11.114-.01v-1.482h1.411a2.785,2.785,0,0,0,.706-.031.749.749,0,0,0,.4-.306c.375-.619-.614-1.479-.9-1.851l-3.732-4.661-.041.03-3.895,4.672c-.3.38-1.351,1.207-.879,1.861a.747.747,0,0,0,.358.255,2.947,2.947,0,0,0,.756.031h1.636q0,.746-.01,1.492h-8.813v-1.492a7.579,7.579,0,0,0,2.443-.174,4.128,4.128,0,0,0,1.626-1.4c.3-.37.635-.708.93-1.084q2.363-2.816,4.724-5.633l-5.419-6.736a6.75,6.75,0,0,0-2.29-2.229,4.231,4.231,0,0,0-1.493-.174v-1.492Z" fill="#828282"/>
    <path id="Path_370" data-name="Path 370" d="M284.826,442.833a13.4,13.4,0,0,0-.756-2.944,10.993,10.993,0,0,0-7.75-6.594,10.8,10.8,0,0,0-2.822-.286l-1.175.092a13.025,13.025,0,0,0-2.311.562,11.213,11.213,0,0,0-6.707,6.716,11.954,11.954,0,0,0-.511,2.085,10.2,10.2,0,0,0,.491,4.969c.151.389.278.749.44,1.114a11.172,11.172,0,0,0,4.846,5.06,10.909,10.909,0,0,0,1.554.665,9.326,9.326,0,0,0,3.486.582h1.217a16.776,16.776,0,0,0,2.228-.439,11,11,0,0,0,7.055-6.461,10.32,10.32,0,0,0,.766-4.007A6.517,6.517,0,0,0,284.826,442.833Zm-4.57,1.574q-.02.393-.041.787c-.1.555-.135,1.1-.265,1.605-.659,2.571-1.927,4.727-4.253,5.632a8.535,8.535,0,0,1-1.647.287,2.753,2.753,0,0,1-.8-.031l-.654-.061a5.1,5.1,0,0,1-1.922-.849,8.146,8.146,0,0,1-2.9-4.426c-.142-.456-.2-.919-.307-1.421a11.42,11.42,0,0,1,.041-4.212c.594-2.68,1.63-4.7,3.7-5.908a5.5,5.5,0,0,1,1.5-.522l.736-.092a6.01,6.01,0,0,1,2.188.3c2.518.982,3.665,3.14,4.366,5.939.112.447.141.946.225,1.441l.03.675Z" fill="#828282"/>
    <path id="Path_371" data-name="Path 371" d="M259.2,452.626l-.951-2.75-.471-1.39c-.645-1.649-1.384-3.125-2.975-3.824a4.361,4.361,0,0,0-1.216-.429v-.01l.48-.1.787-.275a5.314,5.314,0,0,0,2.444-2.209,5.242,5.242,0,0,0,.47-4.089,5.2,5.2,0,0,0-3.047-3.4,8.725,8.725,0,0,0-3.332-.388H237.051v1.533h2.873v17.348H237v1.544l10.633.01v-1.554H244.7V444.3c2.37,0,4.727-.087,6.216.788,1.961,1.151,2.685,3.819,3.323,6.307.15.583.247,1.193.4,1.8l.2.982h6.676q.006-.772.011-1.544Zm-6.329-11.511a3.92,3.92,0,0,1-2.361,1.534,9.858,9.858,0,0,1-2.147.1h-3.65v-7.463h3.68a8.913,8.913,0,0,1,2.474.2,3.672,3.672,0,0,1,2.5,2.432,6.792,6.792,0,0,1,.153.9A3.53,3.53,0,0,1,252.867,441.115Z" fill="#828282"/>
  </g>
</svg>
