<svg xmlns="http://www.w3.org/2000/svg" width="145.37" height="40.432" viewBox="0 0 145.37 40.432">
  <g id="logo-cartier" transform="translate(-118.204 -155)">
    <path id="Path_281" data-name="Path 281" d="M148.969,155a16.59,16.59,0,0,0-4.137.525s-7.722,1.916-16.232,9.863a47.182,47.182,0,0,0-6.932,9.412s-2.987,5.523-3.438,10.145c0,0-.451,5.185,2.48,7.834,0,0,3.381,3.1,10.765,2.48a25.977,25.977,0,0,0,9.638-3.72,35.893,35.893,0,0,0,4-3.044,6.952,6.952,0,0,0,.338,4.565,4.933,4.933,0,0,0,3.325,2.2,8.229,8.229,0,0,0,4.115-.563s1.522-.677,2.536-1.184a33.623,33.623,0,0,0,4.115-2.705,4.016,4.016,0,0,0,.507,2.931,4.437,4.437,0,0,0,3.044,1.691s5.3.394,12.682-8.68l-5.186,8.341,4.735-.057,4.115-7.1s4.284-7.327,5.185-8.229a10.4,10.4,0,0,1,5.523-3.607l2.2.169a1.723,1.723,0,0,1,.9,1.465l-1.634-.282a2.037,2.037,0,0,0-1.465,1.127,3.3,3.3,0,0,0-.225,1.916,1.947,1.947,0,0,0,1.015,1.071l.507.169,1.634-.226s2.874-1.071,6.82-6.031l-.9,1.634L195.67,182.8l-3.889,6.876s-1.127,2.254-.62,3.607a2.969,2.969,0,0,0,2.2,1.634l3.664-.282a11.515,11.515,0,0,0,3.776-2.085l2.424-1.973a66.278,66.278,0,0,0,5.58-5.411l-.169.226a49.764,49.764,0,0,0-2.705,5.636s-.9,2.987,1.184,4.171l2.367.226a9.967,9.967,0,0,0,3.945-1.691l3.213-2.762a52.939,52.939,0,0,0,4.227-4.452,14.07,14.07,0,0,0-.9,2.931,5.331,5.331,0,0,0,3.1,5.523l3.438.282a15.38,15.38,0,0,0,3.438-.845s4.847-1.578,11.667-7.834c0,0,3.438-3.156,5.861-5.974L238.9,194.978h4.227l3.156-5.3,4.058-6.594a20.011,20.011,0,0,1,6.538-6.031,11.058,11.058,0,0,1,2.987-1.24s1.353-.282,1.634.394a1.987,1.987,0,0,0-2.367,1.578s-.451,1.973,1.127,2.593a2.613,2.613,0,0,0,2.142-.282,3.34,3.34,0,0,0,1.127-1.8,3.1,3.1,0,0,0-.337-2.029,3,3,0,0,0-2.255-1.127s-1.748-.057-5.242,2.254a31.338,31.338,0,0,0-3.664,2.762l2.874-4.9h-4.284a54.882,54.882,0,0,1-11.216,12.794s-6.989,5.693-10.934,5.862c0,0-3.832.282-4.227-2.649a9.142,9.142,0,0,1,.789-4.227,15.163,15.163,0,0,0,5.523-.789,24.292,24.292,0,0,0,5.467-2.649,12.782,12.782,0,0,0,3.607-3.72,4.027,4.027,0,0,0-.169-3.946s-2.367-2.311-7.5-.169a24.86,24.86,0,0,0-9.244,7.44l-1.014,1.522-.113.169-2.818,3.269-2.874,2.875s-3.495,3.438-5.242,2.423a1.83,1.83,0,0,1-.677-1.522,5.009,5.009,0,0,1,.789-2.367l8.172-14.2h-3.664s-2.029,3.325-4.4,6.482c0,0-4.622,6.143-9.638,9.694,0,0-3.438,2.649-5.354,1.747a1.518,1.518,0,0,1-.789-1.465A6.039,6.039,0,0,1,196.29,189l8-13.639,4.452-.057.564-.563H204.8l4.791-8.511-4.058.057s-2.818,4.791-4.96,7.665c0,0-3.945,5.186-7.214,6.594a3.575,3.575,0,0,0,.62-1.86l-.056-.9a2.674,2.674,0,0,0-1.353-1.747l-1.014-.282-1.916.169a11.112,11.112,0,0,0-4.34,2.311l1.747-2.931h-4.058a85.363,85.363,0,0,1-8.454,12.118s-6.257,7.214-9.695,6.369a2.117,2.117,0,0,1-1.071-1.747,6.341,6.341,0,0,1,1.071-2.987l8.173-13.809-4.058.056-1.3,2.255-.845,1.634a4.006,4.006,0,0,0-2.761-4.622l-1.916-.169s-4.847-.056-10.37,4.791a36.691,36.691,0,0,0-6.651,8.51s-5.749,5.354-11.836,6.538c0,0-5.411,1.127-7.722-1.3a10.674,10.674,0,0,1-2.536-7.1s.056-5.354,3.889-12.625a104.568,104.568,0,0,1,6.538-8.68s6.312-6.932,12.85-8.68c0,0,5.354-1.409,8.341,1.015a9.059,9.059,0,0,1,2.762,6.312l1.465-2.48a35.875,35.875,0,0,1,3.494-4.622,13.2,13.2,0,0,1-3.381.9,6.966,6.966,0,0,1-3.438-.394,13.249,13.249,0,0,0-6.571-1.6Zm13.765,19.917a3.88,3.88,0,0,1,2.5.786c1.973,1.8.395,5.185.395,5.185a34.215,34.215,0,0,1-7.5,10.145l-2.705,1.916c-4.227,2.085-6.031.62-6.031.62-1.465-1.24-.845-4.058-.845-4.058a20.842,20.842,0,0,1,1.973-4.678l3.044-4.452a22.676,22.676,0,0,1,5.918-4.622A7.269,7.269,0,0,1,162.734,174.917Zm72.5.5c.057,0,.113,0,.168.007a2.44,2.44,0,0,1,1.3.564,2.633,2.633,0,0,1,.282,1.691,9.61,9.61,0,0,1-3.607,5.805s-3.776,3.213-8.173,3.1l.846-1.747a31.153,31.153,0,0,1,4.734-6.594S233.481,175.435,235.238,175.413Z" fill="#828282"/>
    <path id="Path_282" data-name="Path 282" d="M340.575,184.193a2,2,0,0,0,.564,1.3,1.968,1.968,0,0,0,1.3.507,1.929,1.929,0,0,0,1.24-.507,2.158,2.158,0,0,0,.507-1.3l-.507-1.3a2.111,2.111,0,0,0-1.24-.507,2.034,2.034,0,0,0-1.3.507,1.883,1.883,0,0,0-.564,1.3" transform="translate(-122.473 -15.085)"/>
  </g>
</svg>
