<svg xmlns="http://www.w3.org/2000/svg" width="118.241" height="46.17" viewBox="0 0 118.241 46.17">
  <g id="logo-piaget" transform="translate(-129.233 -147.961)">
    <path id="Path_358" data-name="Path 358" d="M255.617,227.953V206.9c0-2.958.407-4.065,1.881-4.4h0v-.118h-7.666v.118c1.476.338,1.873,1.445,1.873,4.4v21.049c0,2.958-.389,4.066-1.863,4.406h0v.117H257.5v-.117h0c-1.474-.339-1.882-1.447-1.882-4.406Z" transform="translate(-96.231 -43.426)" fill="#828282"/>
    <path id="Path_359" data-name="Path 359" d="M600.024,194.055c3.349-.318,3.646-2.245,3.646-7.521l0-37.1c-.818.1-3.708-.384-5.835.773-2.162,1.178-3.12,3.673-4.153,5.519l-.115-.035,1.906-7.634H616.08l.429,1.713-.1.031.1-.031,1.482,5.924-.113.034c-.751-1.36-1.776-3.7-3.313-4.96-2.175-1.78-5.511-1.24-6.748-1.333l-.005,37.091c0,5.275.229,7.119,3.588,7.528v.116l-11.376,0v-.115" transform="translate(-370.517 -0.074)" fill="#828282"/>
    <path id="Path_360" data-name="Path 360" d="M424.453,213.031v.12h-.008c3.015.417,3.337,2.054,3.337,6.417v4c0,.718-.242,3.723-2.331,4.59a4.635,4.635,0,0,1-2.062.357,4.819,4.819,0,0,1-2.317-.976c-1.14-.91-1.645-2.13-2.3-5.339a48.63,48.63,0,0,1-.786-9.053,33.433,33.433,0,0,1,1.075-9.052c1.087-3.409,2.933-5.21,5.2-5.247,1.926-.032,5.217.846,7.438,5.98l0-.017.112-.035-1.642-5.314-.276-.935-.125.04c.021.283,0,.6-.379.584a2.314,2.314,0,0,1-.977-.478,7.719,7.719,0,0,0-4.178-1.144c-2.592-.005-10.665.841-10.665,15.617,0,15.025,7.614,16.7,9.9,16.7a8.033,8.033,0,0,0,3.018-.748,6.1,6.1,0,0,1,3.166-.681c.6.007,1.323.194,2.193.194V213.031Z" transform="translate(-226.885 -39.551)" fill="#828282"/>
    <path id="Path_361" data-name="Path 361" d="M547.087,225.618c-1.656,4.026-4.106,5.607-9.667,5.607h-1.544V217.938h2.144c2.1,0,4.1-.417,5.264,2.135l0-.007.117-.031-1.891-7.447-.114.027,0-.007c.392,3.518-1.255,3.859-3.4,3.884-.672.009-2.115,0-2.115,0v-12.71l2.649,0c4.36-.076,5.791.339,7.507,4.154l0-.006.11-.033-1.7-5.432H530.318v.117h0c1.474.337,1.646,1.436,1.646,4.372v21.056c0,2.95-.174,4.084-1.662,4.427v.117h14.694l2.2-6.888-.107-.051Z" transform="translate(-320.034 -43.492)" fill="#828282"/>
    <path id="Path_362" data-name="Path 362" d="M707.125,156.525l.008,0-.008,0h0" transform="translate(-461.134 -6.832)" fill="#828282"/>
    <path id="Path_363" data-name="Path 363" d="M706.717,156.534l-.1.031.1-.031" transform="translate(-460.726 -6.841)" fill="#828282"/>
    <path id="Path_364" data-name="Path 364" d="M139.3,149.427c5.579,0,7.174,3.3,7.174,10.579,0,8.3-4.042,10.585-7.957,10.585h-1.48V149.427Zm.461-1.466H129.233v.133c3.3.348,3.656,1.972,3.656,7.5V186.5c0,5.518-.357,7.162-3.644,7.516v.115h11.374v-.118c-3.232-.366-3.585-2.028-3.585-7.513V172.051c.7.007,1.319-.015,1.943-.015,6.394,0,11.93-2.983,11.93-12.03,0-8.714-3.737-12.045-11.148-12.045Z" fill="#828282"/>
    <path id="Path_365" data-name="Path 365" d="M307.522,204.1l2.08-7.418,2.1,7.418Zm15.024,16.05v-.117h0c-1.713-.425-2.59-1.23-3.323-3.815l-7.97-29.282-8.411,28.972c-1.017,3.367-1.75,4.125-2.719,4.125,0,.047,0,.116,0,.116h5.006v-.117h0c-2.143-.435-1.487-2.1-.649-5.131l2.592-9.356h4.985l2.838,10.2c.93,2.774-.923,3.941-2.407,4.286h0v.117Z" transform="translate(-136.365 -31.099)" fill="#828282"/>
  </g>
</svg>
