<svg xmlns="http://www.w3.org/2000/svg" width="127.501" height="48.534" viewBox="0 0 127.501 48.534">
  <g id="logo-iwc" transform="translate(2 -184.276)">
    <path id="Path_283" data-name="Path 283" d="M124.472,185.84c1.632.091,2.843.366,2.843,1.919V209.5c0,1.78-1.4,2.212-3.128,2.21v.747h10.378v-.746c-2.005-.083-3.131-.318-3.128-2.274l.036-21.746c0-1.458,1.3-1.757,2.843-1.848v-.747h-9.845v.746Z" transform="translate(-99.32 -0.643)" fill="#828282" fill-rule="evenodd"/>
    <path id="Path_284" data-name="Path 284" d="M180.1,185.839a3.289,3.289,0,0,1,2.95,1.872l8.636,24.99h.746c1.31-3.929,5.944-14.214,7.392-17.7h.036l6.113,17.7h.746c0-.435,8.434-22.578,9.347-24.909.522-1.333,2.213-1.954,3.59-1.954v-.746h-8.743v.746c1.562,0,2.92.205,2.737,1.919-.336,3.137-5.864,16.325-5.864,16.665h-.036l-5.686-16.487c-.634-1.839.958-2.1,2.488-2.1V185.8h.036v-.711H194.463v.746c1.925.1,2.467.481,2.95,1.883l1.528,4.442-5.224,12.756h-.071l-5.828-17.156c-.5-1.475,1.173-1.961,2.488-1.961v-.711H180.1v.746Z" transform="translate(-143.331 -0.643)" fill="#828282" fill-rule="evenodd"/>
    <path id="Path_285" data-name="Path 285" d="M359.54,198.241c0,9.726,6.334,14.28,13.313,14.28,4.471,0,7.735-1.744,10.463-6.289l-.746-.426c-2.182,3.272-4.289,4.8-9.453,4.8-5.212-.4-8.636-4.86-8.636-12.532,0-5.634,2.021-11.831,8.6-12.27,5.138,0,7.889,2.873,8.956,7.142h.746l-.249-8.315h-.746c0,2.309-2.6,1.162-3.815.644a10.981,10.981,0,0,0-4.821-.994c-8.284-.122-13.611,6.047-13.611,13.964Z" transform="translate(-284.561 0)" fill="#828282" fill-rule="evenodd"/>
    <path id="Path_286" data-name="Path 286" d="M562.417,372.026v8.359h1.465v-5.859l4.609,5.859h1.251v-8.36h-1.465v5.716l-4.466-5.716Z" transform="translate(-444.241 -147.774)" fill="#828282" fill-rule="evenodd"/>
    <path id="Path_287" data-name="Path 287" d="M361.045,373.911h.036l1.386,3.269h-2.808l1.386-3.269Zm-4.259,6.609h1.457l.924-1.99h3.945l.817,1.99h1.493l-3.625-8.35h-1.386l-3.625,8.35Z" transform="translate(-282.393 -147.888)" fill="#828282" fill-rule="evenodd"/>
    <path id="Path_288" data-name="Path 288" d="M153.819,373.911h.036l1.386,3.269h-2.808l1.386-3.269Zm-4.259,6.609h1.457l.924-1.99h3.945l.817,1.99H158.2l-3.625-8.35h-1.386l-3.625,8.35Z" transform="translate(-119.29 -147.888)" fill="#828282" fill-rule="evenodd"/>
    <path id="Path_289" data-name="Path 289" d="M411.952,377.535c0,2.111,1.239,3.161,3.417,3.162,2.235,0,3.584-1.162,3.584-3.34V372.17H417.5v5.081a1.84,1.84,0,0,1-2.043,1.99c-1.374,0-2.044-.653-2.044-1.99V372.17h-1.457v5.365Z" transform="translate(-325.813 -147.888)" fill="#828282" fill-rule="evenodd"/>
    <path id="Path_290" data-name="Path 290" d="M-1.751,374.072c0,1.7,1.29,2.138,2.666,2.482.777.207,1.99.454,1.99,1.289,0,.763-.748,1.057-1.409,1.057a3.639,3.639,0,0,1-2.571-1.066l-.924,1.1a5.743,5.743,0,0,0,3.468,1.244c1.687,0,2.765-.729,2.964-2.357,0-1.918-1.358-2.253-3.056-2.653-.668-.167-1.564-.394-1.564-1.176,0-.666.566-1.062,1.309-1.062a3.479,3.479,0,0,1,2.209.888l.818-1.1A4.438,4.438,0,0,0,.985,371.65a2.594,2.594,0,0,0-2.737,2.422Z" transform="translate(0 -147.475)" fill="#828282" fill-rule="evenodd"/>
    <path id="Path_291" data-name="Path 291" d="M463.11,374.084c0,1.7,1.29,2.138,2.666,2.482.777.207,1.99.454,1.99,1.288,0,.763-.748,1.057-1.409,1.057a3.639,3.639,0,0,1-2.571-1.066l-.924,1.1a5.743,5.743,0,0,0,3.469,1.244c1.687,0,2.765-.729,2.964-2.357,0-1.918-1.358-2.253-3.056-2.653-.668-.167-1.564-.394-1.564-1.176,0-.666.566-1.062,1.309-1.062a3.479,3.479,0,0,1,2.209.888l.817-1.1a4.437,4.437,0,0,0-3.163-1.066,2.594,2.594,0,0,0-2.737,2.422Z" transform="translate(-365.883 -147.484)" fill="#828282" fill-rule="evenodd"/>
    <path id="Path_292" data-name="Path 292" d="M44.9,376.444a4.128,4.128,0,0,0,4.3,4.218,4.41,4.41,0,0,0,3.305-1.386l-.924-1.031a3.283,3.283,0,0,1-2.341,1.066,2.936,2.936,0,0,1-.009-5.863,3.352,3.352,0,0,1,2.315,1.066l.888-1.066a4.425,4.425,0,0,0-7.534,2.995Z" transform="translate(-36.916 -147.888)" fill="#828282" fill-rule="evenodd"/>
    <path id="Path_293" data-name="Path 293" d="M513.889,373.279h4.725v-1.35h-6.182v8.4h1.457v-.014h4.8v-1.35h-4.8v-2.212h4.192V375.4h-4.192v-2.124Z" transform="translate(-404.899 -147.698)" fill="#828282" fill-rule="evenodd"/>
    <path id="Path_294" data-name="Path 294" d="M209.611,377.1H213.8v-1.35h-4.192V373.52h4.726v-1.35h-6.183v8.35h1.457V377.1Z" transform="translate(-165.408 -147.888)" fill="#828282" fill-rule="evenodd"/>
    <path id="Path_295" data-name="Path 295" d="M258.264,377.1h4.192v-1.35h-4.192V373.52h4.725v-1.35h-6.182v8.35h1.457V377.1Z" transform="translate(-203.702 -147.888)" fill="#828282" fill-rule="evenodd"/>
    <path id="Path_296" data-name="Path 296" d="M100.476,372.17H99.019v8.35h1.457V377h3.9v3.518h1.457v-8.35h-1.457v3.482h-3.9V372.17Z" transform="translate(-79.51 -147.888)" fill="#828282" fill-rule="evenodd"/>
    <path id="Path_297" data-name="Path 297" d="M306.1,372.17h-1.457v8.35H306.1V377H310v3.518h1.457v-8.35H310v3.482h-3.9V372.17Z" transform="translate(-241.351 -147.888)" fill="#828282" fill-rule="evenodd"/>
  </g>
</svg>
