<svg xmlns="http://www.w3.org/2000/svg" width="138.252" height="66.996" viewBox="0 0 138.252 66.996">
  <g id="logo-patekphilippe" transform="translate(-670 -455)">
    <g id="Group_1393" data-name="Group 1393" transform="translate(670 455)">
      <path id="Path_372" data-name="Path 372" d="M208.5,312.09V296.006h5.539a3.653,3.653,0,0,1,2.343.533,6.114,6.114,0,0,1,1.7,1.6,4.567,4.567,0,0,1,.639,2.343,4.2,4.2,0,0,1-.639,2.237,3.986,3.986,0,0,1-1.385,1.6,3.358,3.358,0,0,1-1.065.533,6.258,6.258,0,0,1-1.385.212h-3.835v7.03Zm1.917-8.734h3.728a3.017,3.017,0,0,0,1.385-.426,3.79,3.79,0,0,0,1.065-1.171,2.947,2.947,0,0,0,.319-1.384,3.133,3.133,0,0,0-.532-1.385,2.094,2.094,0,0,0-.959-.959,2.146,2.146,0,0,0-1.171-.319.391.391,0,0,0-.32-.107h-3.408l-.107,5.752Z" transform="translate(-208.504 -264.585)" fill="#828282" fill-rule="evenodd"/>
      <path id="Path_373" data-name="Path 373" d="M218.524,312.039l6.39-16.3h1.7l6.71,16.3h-2.237l-1.6-4.154h-7.349l-1.6,4.154Zm4.367-5.858h5.858l-2.983-7.35-2.875,7.35Z" transform="translate(-210.642 -264.535)" fill="#828282" fill-rule="evenodd"/>
      <path id="Path_374" data-name="Path 374" d="M237.8,312.039V297.766l-4.793-.106v-1.917h11.823l-.107,1.811-4.9.107v14.379Z" transform="translate(-213.733 -264.535)" fill="#828282" fill-rule="evenodd"/>
      <path id="Path_375" data-name="Path 375" d="M249.665,312.039v-16.3h9.16l-1.065,1.811h-6.071v5.219h5.751v1.811h-5.751v5.752h6.178l1.065,1.7Z" transform="translate(-217.286 -264.535)" fill="#828282" fill-rule="evenodd"/>
      <path id="Path_376" data-name="Path 376" d="M263.151,332.329v-1.278h5.326v4.26l-.959.958a6.013,6.013,0,0,1-1.384.853,6.075,6.075,0,0,1-1.491.426,6.525,6.525,0,0,1-1.491.107,11.246,11.246,0,0,1-2.023-.533,3.826,3.826,0,0,1-1.065-.746,3.331,3.331,0,0,1-.959-1.171,5.338,5.338,0,0,1-.959-2.557l-.106-.959a6.464,6.464,0,0,1,0-2.023,8.46,8.46,0,0,1,1.065-2.876,7.355,7.355,0,0,1,1.917-1.7,5.205,5.205,0,0,1,.746-.32,8.147,8.147,0,0,1,1.7-.319,6.706,6.706,0,0,1,2.024.319,6.254,6.254,0,0,1,1.811,1.065,1.885,1.885,0,0,1,.426.533l.533.533-.958.745-.319-.212a4.715,4.715,0,0,0-1.6-1.278l-.958-.32h-.959a4.341,4.341,0,0,0-1.917.533c-.213.213-.533.426-.746.64a4.326,4.326,0,0,0-.532.958,6.562,6.562,0,0,0-.533,1.278l-.106.746v1.6l.106.746.213.746a5.219,5.219,0,0,0,.426,1.171,11.232,11.232,0,0,0,1.065,1.278,4.606,4.606,0,0,0,1.278.533,2.747,2.747,0,0,0,1.6.106,2.546,2.546,0,0,0,1.491-.533,4.647,4.647,0,0,0,.746-.426l.319-.32v-2.556Z" transform="translate(-219.055 -270.659)" fill="#828282" fill-rule="evenodd"/>
      <path id="Path_377" data-name="Path 377" d="M263.07,312.039v-16.3h2.024v7.349l6.5-7.349h2.556l-5.006,5.645,5.539,10.651h-2.45l-4.474-8.947-2.663,2.982v5.965Z" transform="translate(-220.146 -264.535)" fill="#828282" fill-rule="evenodd"/>
      <path id="Path_378" data-name="Path 378" d="M273.631,337.557V324.989h7.136l-.746,1.385h-4.687v3.941H279.7V331.7h-4.367v4.474h4.687l.746,1.385Z" transform="translate(-222.399 -270.775)" fill="#828282" fill-rule="evenodd"/>
      <path id="Path_379" data-name="Path 379" d="M293.91,278.012H293.7l-.107.106-.106.213v.319h0l.106.213v.213l.107.107.107.106v.213l.106.213v.107l.107.213v.32h.107v.32l-.107.213v.426l-.107.107v.106H293.8v.107l-.107.213-.213.213-.107.106-.213.213-.107.106-.213.107-.213.213-.213-.213-.107-.107-.213-.106-.107-.213-.106-.106-.107-.213-.107-.106-.106-.213v-.106l-.107-.213v-.32l-.107-.213v-.213l.107-.107v-.426l.107-.106v-.213l.106-.106.213-.532.106-.107v-.639l-.106-.107-.107-.106h-.213l-.107.106h-.213l-.107.107-.639.426-.106.106-.213.107h-.106l-.107.107h-.213l-.107.106h-.639l-.107-.106h-.213l-.213-.107-.107-.107-.107-.106-.213-.107-.107-.107-.106-.213-.107-.107v-.213l-.107-.107v-.639l.107-.106v-.213l.107-.106v-.213l.106-.106.107-.107V276.2l.107-.106.106-.213.959-.958.639-.639.107-.107.107-.213.106-.107.107-.107v-.106l.213-.533.107-.106v-.213l.106-.106h.107l.107.106.106.107v.107l.107.213v.107l-.107.213v.213l-.106.213-.107.213-.426.852-.32.639v.213l-.107.213v.213l.107.107v.213l.106.107.213.106.106.107h.852l.213-.107h.106l.107-.106.107-.107.106-.107.107-.106h0l.107-.213v-.106l.106-.213v-5.858h-6.071v.107h-.213l-.107.107-.107.106h-.106l-.213.107v.107l-.106.106-.107.213v.107l-.107.107v.639l.107.213.107.107.106.106v.107l.213.107h.852l.106-.107h.107l.107-.107.533-.213.32-.213.213-.107h.107l.213-.107h.107l.107-.106h.639l.106.106.107.107v.213l-.107.107h-.32l-.106.107h-.213l-.106.106-.107.107-.746.532-.852.639-.639.639-.213.107-.107.213H285.6v.107l-.213.107h-.107l-.213.106h-.959l-.213-.106h-.106l-.107-.107-.213-.107-.107-.106-.107-.213-.213-.106v-.213l-.107-.106V272.58l.107-.107.213-.32.107-.106.426-.639.106-.107.107-.213v-.107l.107-.213-.107-.107v-.106l-.107-.107h-.106l-.107-.107h-.213l-.213.107h-.106l-.533.213-.106.107h-.107l-.106.106h-.213l-.106.107h-.639l-.107-.107h-.32l-.213-.106-.107-.107h-.107l-.106-.106h-.107l-.107-.107-.213-.213-.213-.107v-.107l-.213-.106-.213-.32.32-.32.426-.426.106-.107h.107l.107-.213.213-.107h.213l.107-.106h.213l.213-.107h.532l.213.107h.107l.107.106.532.213.213.106.107.107h.745l.107-.213h.107v-.32l-.107-.107L283.9,268l-.106-.213-.107-.106-.213-.426-.107-.107v-.106l-.107-.107-.106-.213v-.213l-.107-.213v-.32l.107-.213v-.213l.106-.107.107-.213.107-.107.106-.107.107-.106.107-.107.106-.107H284l.213-.106h.213l.213-.107h.213l.107.107h.32l.213.106h.213l.106.107h.107l.107.107.106.106.107.107.213.107.107.213.959.852.106.213.213.213.32.213.213.213h.107l.106.107h.107l.107.107h.426l.107.106.107.107v.213l-.213.107-.106.107H288.8l-.107-.107h-.213l-.426-.213h-.107l-.213-.107-.532-.32-.639-.32h-.107l-.213-.107h-.426l-.106.107H285.6l-.213.107-.107.106v.107l-.107.213v.107l-.106.213v.319l.106.213.107.106v.213l.213.106.107.107.107.107h.106l.213.106h6.284V263.1l-.106-.106v-.213l-.107-.106v-.107l-.107-.107-.106-.106-.107-.107-.213-.106-.107-.107h-.213l-.213-.107h-.106l-.213.107h-.106l-.213.107h-.107l-.107.106-.106.213v.107h0l-.107.213v.107l.107.107v.32l.106.106v.107l.32.852.32.639.107.213.106.213v.426l-.106.213-.107.107-.107.106-.106-.106-.107-.107v-.426l-.106-.106-.107-.213-.213-.32-.107-.213-.107-.107-.32-.32-.852-.959-.532-.639-.107-.213-.107-.213-.106-.107-.107-.213v-.319l-.107-.107v-.426l.107-.213v-.106l.107-.213.106-.106v-.107l.213-.107.106-.213.107-.107.107-.106h.213l.107-.107h.319l.213-.107.107.107h.319l.213.107h.107l.106.106.32.213.32.32.32.106.107.107.213.107h.32l.107-.107h0l.106-.107.107-.106v-.213l-.107-.106v-.213l-.106-.106-.107-.213-.107-.32-.213-.426v-.213l-.107-.106v-.533l.107-.213v-.106l.107-.107v-.213l.106-.213.107-.106.107-.107.106-.213.107-.107.107-.107.106-.106.426-.426.213.213.213.213.213.106.107.213.106.106.107.213.107.106.106.213v.106l.107.107v.107l.107.213v.745l-.107.213-.107.426-.106.213v.106l-.213.32v.107l-.106.107v.213l.106.107v.213l.107.107h.107l.213.106.107-.106h.213l.107-.107.213-.107.106-.106.533-.426h.213l.107-.107h.106l.107-.106h.959l.213.106.107.107h0l.213.107.107.106.107.107.106.107.107.106v.213l.107.106v.213l.106.213v.107l-.106.213v.213h0v.107l-.107.107v.106l-.107.213v.107l-.106.107-.107.106-.107.213-.213.213-.213.213-.426.426-.32.426-.32.32-.213.213-.213.213-.213.426-.107.107-.106.106v.213l-.107.106v.107l-.107.107h-.106l-.107-.107-.106-.213v-.426l.106-.107v-.106l.107-.107.32-.852.319-.639.106-.107v-.213l.107-.107v-.639l-.107-.107v-.106l-.106-.107v-.106l-.107-.107h-.213l-.107-.107h-.533l-.213.107h-.107l-.107.107-.106.106-.107.107-.213.213-.107.107v.213l-.107.107v6.178l5.006-.107h1.172l.107-.106h.107l.106-.107.107-.107.107-.213.106-.107h0l.107-.213.107-.107v-.745l-.107-.107v-.213l-.107-.107-.106-.107h-.852l-.106.107h-.107l-.213.107-.639.319-.746.32h-.106l-.213.106h-.106l-.213.107h-.106l-.213-.107h-.106l-.107-.106v-.213l.107-.106.213-.107h.213l.213-.107H297l.533-.426.745-.639.852-.746.639-.426.107-.107.107-.107.213-.106h.107l.213-.107h.852l.107.107h.213l.107.106.107.107.213.107.107.106.106.213h0l.107.213v.107l.107.106v.852l-.107.106v.107l-.107.213-.106.107v.106l-.426.533-.107.106v.107l-.106.107-.107.106v.426l.107.107.106.106.107.107h.32l.107-.107h.106l.426-.213h.106l.213-.107h.106l.107-.106h.32l.213-.107h.426l.107.107h.213l.213.106.213.107.106.107.213.106.106.107.213.107.106.106.107.213.32.32-.32.426-.107.107-.106.107-.107.106-.107.107-.213.107-.107.106-.213.107h-.107l-.213.106h-.319l-.107.107h-.32l-.106-.107h-.426l-.107-.106h-.213l-.107-.107h-.106l-.107-.106-.32-.213h-.639l-.106.107-.107.107-.107.106v.32l.107.107.107.213.106.107.213.32.213.319.107.213.106.107v.426l.107.107v.426l-.107.106v.213l-.106.106v.107l-.107.213-.107.107-.106.107-.213.106-.106.107-.107.107h-.213l-.107.106H300.3l-.107-.106h-.213l-.107-.107-.107-.107-.213-.106-.107-.107-.213-.107-.852-.852-.746-.639-.213-.32-.32-.213-.107-.107-.533-.213-.213-.107-.107-.107.107-.213h.106l.107-.107h.213l.107.107h.32l.107.107h.213l.32.213.746.426.319.213h.213l.213.107h.426l.213-.107h0l.213-.107.107-.106.107-.213v-.106l.106-.107v-.32l-.106-.107v-.213l-.107-.107v-.213l-.107-.106-.106-.107-.107-.107-.107-.106h-.213l-.107-.107h-.213l-.213-.107h-5.752v5.645l.107.319v.213l.107.107v.107l.106.106.107.107.107.107h.106l.107.106.107.107h.958l.107-.107.107-.106.106-.107.107-.107.107-.106v-.533l-.107-.106v-.32l-.107-.107-.213-.426-.32-.746-.213-.533-.107-.213V272.9l.107-.107.106-.106.107-.107.107.107.106.106v.426l.107.107v.106l.213.32.107.213.213.213.107.213.746.852.639.852.106.106.107.107.107.107.106.213v.107l.107.106v.107l.107.213v.959l-.107.107v.107l-.107.106-.106.213-.213.106-.106.107-.107.107-.213.106h-.107l-.213.107h-.639l-.107-.107h-.107l-.213-.106H295.4l-.106-.107h-.107l-.107-.107-.106-.106-.639-.426-.107-.107-.106-.106Z" transform="translate(-223.612 -256.071)" fill="#828282" fill-rule="evenodd"/>
      <path id="Path_380" data-name="Path 380" d="M284.84,337.557l-.107-12.568h2.343l5.219,9.8v-9.8h1.6v12.568h-1.917l-5.645-10.651v10.651Z" transform="translate(-224.768 -270.775)" fill="#828282" fill-rule="evenodd"/>
      <path id="Path_381" data-name="Path 381" d="M285.517,312.2l-.106-16.19h5.645a5.809,5.809,0,0,1,2.343.533,4.12,4.12,0,0,1,1.6,1.7,5.562,5.562,0,0,1,.745,2.236,4.676,4.676,0,0,1-2.023,3.835,3.358,3.358,0,0,1-1.065.533,3.291,3.291,0,0,1-1.385.319h-3.835V312.2Zm1.917-8.84h3.728a2.705,2.705,0,0,0,2.343-1.491,2.377,2.377,0,0,0,.319-1.491A2.341,2.341,0,0,0,293.4,299a2.09,2.09,0,0,0-.959-.959,2.145,2.145,0,0,0-1.171-.319h-3.835v5.645Z" transform="translate(-224.912 -264.592)" fill="#828282" fill-rule="evenodd"/>
      <path id="Path_382" data-name="Path 382" d="M299.086,337.557V324.989h7.988l3.728,10.332,3.408-10.332h1.811l-4.261,12.355H309.95L305.8,326.374H300.79v3.834h4.26V331.7h-4.367v4.474h4.9l.746,1.385Z" transform="translate(-227.83 -270.775)" fill="#828282" fill-rule="evenodd"/>
      <path id="Path_383" data-name="Path 383" d="M300.169,312.145v-16.4h2.024v6.817h7.349l-.106-6.817h2.024v16.4h-2.024l.106-7.669h-7.349v7.669Z" transform="translate(-228.061 -264.535)" fill="#828282" fill-rule="evenodd"/>
      <path id="Path_384" data-name="Path 384" d="M318.042,312.174v-16.3h2.024v16.3Z" transform="translate(-231.874 -264.564)" fill="#828282" fill-rule="evenodd"/>
      <path id="Path_385" data-name="Path 385" d="M321.291,337.557V324.989h7.03l-.745,1.385h-4.686v3.834h4.367v1.385h-4.367v4.473h4.9l.746,1.385-7.243.107Z" transform="translate(-232.567 -270.775)" fill="#828282" fill-rule="evenodd"/>
      <path id="Path_386" data-name="Path 386" d="M323.564,312.145l-.106-16.4h2.13v14.379h7.136v2.024Z" transform="translate(-233.03 -264.535)" fill="#828282" fill-rule="evenodd"/>
      <path id="Path_387" data-name="Path 387" d="M337,312.145v-16.4h2.024v16.4Z" transform="translate(-235.918 -264.535)" fill="#828282" fill-rule="evenodd"/>
      <path id="Path_388" data-name="Path 388" d="M342.414,312.145v-16.4h5.538a4.557,4.557,0,0,1,2.343.639,4.939,4.939,0,0,1,1.7,1.6,4.567,4.567,0,0,1,.639,2.343,5.313,5.313,0,0,1-.533,2.236,6.793,6.793,0,0,1-1.384,1.6c-.426.213-.746.319-1.172.533a5.371,5.371,0,0,1-1.384.213h-3.728v7.243Zm2.023-8.947h3.622a3.02,3.02,0,0,0,1.385-.426,2.831,2.831,0,0,0,1.065-1.171,3.28,3.28,0,0,0,.319-1.385,3.472,3.472,0,0,0-.426-1.491,6.911,6.911,0,0,0-.959-.852,5.982,5.982,0,0,0-1.278-.426h-3.728V303.2Z" transform="translate(-237.074 -264.535)" fill="#828282" fill-rule="evenodd"/>
      <path id="Path_389" data-name="Path 389" d="M357.443,312.145v-16.4h5.645a4.187,4.187,0,0,1,2.236.639,4.938,4.938,0,0,1,1.7,1.6,4.559,4.559,0,0,1,.639,2.343,4.091,4.091,0,0,1-.533,2.236,5,5,0,0,1-1.385,1.6c-.319.213-.746.319-1.065.533a6.254,6.254,0,0,1-1.491.213h-3.728v7.243Zm2.023-8.947h3.622a3.468,3.468,0,0,0,1.492-.426,2.605,2.605,0,0,0,.958-1.171,3.281,3.281,0,0,0,.32-1.385,2.444,2.444,0,0,0-.426-1.491,2.511,2.511,0,0,0-.959-.852,5.155,5.155,0,0,0-1.171-.426h-3.835V303.2Z" transform="translate(-240.28 -264.535)" fill="#828282" fill-rule="evenodd"/>
      <path id="Path_390" data-name="Path 390" d="M372.472,312.145v-16.4h9.054l-.852,1.811H374.5v5.006h5.113v1.811H374.6v5.752h6.178l.959,2.024Z" transform="translate(-243.487 -264.535)" fill="#828282" fill-rule="evenodd"/>
    </g>
  </g>
</svg>
