<svg xmlns="http://www.w3.org/2000/svg" width="114.699" height="56.032" viewBox="0 0 114.699 56.032">
  <g id="logo-omega" transform="translate(-65 -159.626)">
    <path id="Path_329" data-name="Path 329" d="M197.761,163.894c5.685-5.423,15.43-5.672,21.526-.781a12.111,12.111,0,0,1,4.475,10.942,15.289,15.289,0,0,1-6.8,10.522c1.8.072,3.6.063,5.41.027.709-.885,1.12-2.529,2.6-2.19-.768,1.481-1.535,2.967-2.344,4.426-3.649-.063-7.3.095-10.946-.09,2.3-2.05,4.642-4.155,6.11-6.918,2.637-4.737,2.669-11.267-1.093-15.43a10.552,10.552,0,0,0-14.631-.781,11.772,11.772,0,0,0-3.8,9.095A15.806,15.806,0,0,0,202.3,182.9c1.17,1.413,2.633,2.538,3.911,3.847-3.644.167-7.288.063-10.932.059-.754-1.477-1.558-2.931-2.3-4.416,1.522-.388,1.874,1.377,2.651,2.235,1.775-.018,3.549-.009,5.324-.009a16.223,16.223,0,0,1-6.259-8.232A12.2,12.2,0,0,1,197.761,163.894Z" transform="translate(-88.3)" fill="#828282"/>
    <path id="Path_330" data-name="Path 330" d="M371.524,264.277c3.961,7.564,7.7,15.245,11.642,22.822v.113c-1.224,0-2.443,0-3.662-.023-.736-1.481-1.49-2.958-2.208-4.443q-5.724.007-11.438,0c-.772,1.477-1.513,2.967-2.253,4.461-1.242.009-2.484.009-3.726.009,3.942-7.614,7.781-15.281,11.646-22.935m-4.1,15.263c2.746.108,5.5.036,8.246.05-1.373-2.7-2.7-5.414-4.141-8.079C370.16,274.184,368.842,276.889,367.428,279.54Z" transform="translate(-203.466 -72.21)" fill="#828282"/>
    <path id="Path_331" data-name="Path 331" d="M66.318,272.844a11.288,11.288,0,1,1,9.492,16.546A11.408,11.408,0,0,1,65,278.673V277.6a12.288,12.288,0,0,1,1.318-4.755m7.406-2.475c-4.958,1.49-7.035,8.1-4.1,12.278a8.065,8.065,0,0,0,11.637,1.883,8.381,8.381,0,0,0,1.255-11.646A8.045,8.045,0,0,0,73.724,270.369Z" transform="translate(0 -73.926)" fill="#828282"/>
    <path id="Path_332" data-name="Path 332" d="M140.151,288.474c2.52-7.3,4.479-14.8,7.108-22.059,2.136,4.873,4.258,9.754,6.254,14.681,2.163-4.949,4.344-9.894,6.349-14.911,2.457,7.41,4.71,14.884,7.058,22.33q-1.687.014-3.382.018c-1.432-4.358-2.66-8.779-4.132-13.123-1.865,4.629-3.87,9.208-5.879,13.773-1.915-4.592-3.865-9.176-5.888-13.719-1.305,4.358-2.705,8.688-4.014,13.046C142.463,288.542,141.307,288.533,140.151,288.474Z" transform="translate(-51.854 -73.526)" fill="#828282"/>
    <path id="Path_333" data-name="Path 333" d="M296.661,267.143a11.529,11.529,0,0,1,12.152,4.376c-.89.641-1.77,1.282-2.655,1.924a8.066,8.066,0,0,0-9.551-2.962,8.187,8.187,0,0,0-4.778,9.926,7.926,7.926,0,0,0,8.056,5.789,8.119,8.119,0,0,0,7.428-5.762c-2.538-.018-5.071.014-7.609-.022,0-1.052.009-2.109,0-3.161,3.707,0,7.415.013,11.127,0a11.662,11.662,0,0,1-3.473,8.941,11.242,11.242,0,0,1-11.29,2.687,11.331,11.331,0,0,1,.587-21.73Z" transform="translate(-154.032 -73.91)" fill="#828282"/>
    <path id="Path_334" data-name="Path 334" d="M235.258,268.282c4.412.014,8.819,0,13.227,0-.014,1.052,0,2.109,0,3.161-3.3.032-6.6.014-9.9.009-.009,2.032-.014,4.064.014,6.1,3.2,0,6.4-.018,9.6.009,0,1.056-.018,2.118-.018,3.174-3.2-.036-6.4-.014-9.6-.018-.009,2.027.009,4.055,0,6.083,3.3,0,6.6-.027,9.9.013-.009,1.048,0,2.1.009,3.147q-6.611.041-13.231-.009Q235.278,279.122,235.258,268.282Z" transform="translate(-117.478 -74.973)" fill="#828282"/>
  </g>
</svg>
