<svg xmlns="http://www.w3.org/2000/svg" width="151.343" height="37.683" viewBox="0 0 151.343 37.683">
  <g id="logo-longines" transform="translate(-36.756 -984.671)">
    <path id="Path_335" data-name="Path 335" d="M1012.548,986.577l.684-.763h1.893v7.309h-2.839a5.1,5.1,0,0,0-2.051-4.391,5.674,5.674,0,0,0-5.968-.026c-2.629,1.814-3.391,4.889-3,7.966.368,2.339,1.656,4.837,4.048,5.836a5.339,5.339,0,0,0,5.941-1.262c.517-.272.421-1.717.421-2.576a1.223,1.223,0,0,0-.789-1.052,7.019,7.019,0,0,0-2.129-.158v-2.234h9.279v2.234c-.841.027-1.866-.131-2.208.762l-.118.631v6.308h-2.932l-.473-1.077c-2.708,2.1-7.387,1.866-10.305.289a9.606,9.606,0,0,1-5.152-9.41,10.511,10.511,0,0,1,15.7-8.385Z" transform="translate(-900.188 -0.5)" fill="#828282" fill-rule="evenodd"/>
    <path id="Path_336" data-name="Path 336" d="M2228.321,989.688c.235-.421.524-.841.736-1.288.459,0,1.077-.027,1.629-.027v7.15h-2.365a5.319,5.319,0,0,0-2.893-4.363,5.732,5.732,0,0,0-5.152.131,2.151,2.151,0,0,0-1,1.788,2.127,2.127,0,0,0,1,1.735,6.415,6.415,0,0,0,2.419.789c3.05.709,6.941.789,8.229,4.285a6.762,6.762,0,0,1-1.288,6.441c-2.077,2.18-5.6,2.18-8.36,1.471a16.318,16.318,0,0,1-3.128-1.315l-.474,1.235h-1.893v-7.649h2.367a5,5,0,0,0,2.313,4.311,6.2,6.2,0,0,0,5.967.684,2.67,2.67,0,0,0,1.446-2.708c-.526-2.182-2.918-2.156-4.653-2.576-2.733-.578-6.256-.789-7.23-4a5.944,5.944,0,0,1,1.92-6.256,8.682,8.682,0,0,1,10.411.158Z" transform="translate(-2043.117 -3.06)" fill="#828282" fill-rule="evenodd"/>
    <path id="Path_337" data-name="Path 337" d="M47.193,997.222c-1.052.132-2.445-.394-3.05.736a2.347,2.347,0,0,0-.263,1.42v12.7c2.814-.158,6.6.789,7.7-2.472a10.611,10.611,0,0,0,.342-3.576H54.08v8.307H36.756v-2.259c1-.027,2.157.21,2.708-.736a3.476,3.476,0,0,0,.3-1.736V998.089a1.176,1.176,0,0,0-1.012-.815c-.631-.078-1.341-.027-2-.053v-2.234H47.193Z" transform="translate(0 -9.674)" fill="#828282" fill-rule="evenodd"/>
    <path id="Path_338" data-name="Path 338" d="M668.181,1007.606l.026.026v-8.491a2.149,2.149,0,0,0-1.077-1.683,5.247,5.247,0,0,0-2.051-.236v-2.234h8.728v2.234c-.789.026-1.683-.131-2.182.526a3.364,3.364,0,0,0-.578,2.313v14.274h-3.313l-9.752-13.721-.027-.027.027,10.016a1.433,1.433,0,0,0,.815,1.34,6.241,6.241,0,0,0,2.234.133v2.259H652.12v-2.259c.876,0,2.1.174,2.471-.632a2.956,2.956,0,0,0,.328-1.525V999.036a2.12,2.12,0,0,0-.907-1.5,3.489,3.489,0,0,0-1.893-.315v-2.234h7.387l8.674,12.618Zm54.574,0,.027.026v-8.491a2.15,2.15,0,0,0-1.078-1.683,5.248,5.248,0,0,0-2.051-.236v-2.234h8.728v2.234c-.789.026-1.683-.131-2.182.526a3.364,3.364,0,0,0-.578,2.313v14.274h-3.313l-9.752-13.721-.027-.027.027,10.016a1.434,1.434,0,0,0,.814,1.34,6.248,6.248,0,0,0,2.236.133v2.259h-8.913v-2.259c.877,0,2.1.174,2.471-.632a2.948,2.948,0,0,0,.328-1.525V999.036a2.117,2.117,0,0,0-.907-1.5,3.49,3.49,0,0,0-1.893-.315v-2.234h7.388l8.674,12.618Zm-17.666-10.384c-.972-.026-2.128-.184-2.681.762a3.467,3.467,0,0,0-.277,1.577v10.883a1.729,1.729,0,0,0,.829,1.419,5.694,5.694,0,0,0,2.128.237v2.234h-9.963v-2.259c.894.025,1.92.184,2.55-.526a2.294,2.294,0,0,0,.395-1.236V998.852a1.826,1.826,0,0,0-.84-1.446,6.939,6.939,0,0,0-2.09-.184v-2.234h9.949v2.234Zm42.744,5.836h-2.261c.133-2.129-.1-4.232-2-5.337a4.416,4.416,0,0,0-1.762-.5h-5.238v5.81c1.308,0,2.983.105,3.607-.894a6.353,6.353,0,0,0,.212-2.365h2.024v9.043h-2.024c-.053-1.13.184-2.419-.894-3.05a7.863,7.863,0,0,0-2.924-.316v6.625h6.105a2.937,2.937,0,0,0,2.6-1.6,13.094,13.094,0,0,0,.289-4.193h2.261v8.056H729.511v-2.259c1.026-.053,2.261.262,2.814-.79a4.7,4.7,0,0,0,.2-1.734V998.878a1.664,1.664,0,0,0-.853-1.446,5.864,5.864,0,0,0-2.157-.21v-2.234h18.323v8.07Z" transform="translate(-576.983 -9.674)" fill="#828282" fill-rule="evenodd"/>
    <path id="Path_339" data-name="Path 339" d="M348.067,990.151a10.775,10.775,0,0,0-5.521-4.838,10.23,10.23,0,0,0-13.065,13.249,10.529,10.529,0,0,0,8.439,6.493,10.308,10.308,0,0,0,9.884-4.994A10.022,10.022,0,0,0,348.067,990.151Zm-4.207,8.938a5.333,5.333,0,0,1-4.889,3.339,5.075,5.075,0,0,1-4.39-2.6,9.984,9.984,0,0,1-.027-9.858,5.115,5.115,0,0,1,5.231-2.576,5.224,5.224,0,0,1,3.47,2.234h0A10.062,10.062,0,0,1,343.861,999.089Z" transform="translate(-273.824 0)" fill="#828282" fill-rule="evenodd"/>
    <path id="Path_340" data-name="Path 340" d="M709.943,1354.95l-1.446,2.3c-.524-.763-.947-1.552-1.446-2.313H696.615l-1.446,2.313c-.5-.763-.973-1.552-1.472-2.313h-28.1l3.944,2.785h5.494l2.629,1.868h5.126l2.682,2.049h5.179l2.55,1.907h4.266v5.981h8.72v-5.994h4.285l2.523-1.893H718.2l2.654-2.049H726l2.629-1.868H734.1l3.969-2.773Zm-6.151,11.54h-3.759l1.84-2.694Zm-3.654-6.321h3.471l-1.683,2.417Zm2.208,3.022c.92-1.419,1.972-2.813,2.97-4.232v8.36Zm1.84-3.811h-4.627l-1.1-1.578h6.809Zm-2.734,3.838-3.154,4.416v-8.676C699.323,1360.379,700.426,1361.773,701.452,1363.218Zm-3.154,5.612,1.078-1.537h4.969c.421.5.814,1.038,1.209,1.537Zm35.276-11.922h-15.01c-.316.316-.657.54-1,.855h9.253l-1.366,1.117H713.386l-.867.8h6.808l-1.525,1.157H709.05l-.946.827,3.364.027-1.446,1.051h-3.838v-5.612h-8.72v5.612h-3.818c-.473-.368-.973-.683-1.42-1.051h3.338c-.236-.316-.657-.526-.946-.842H685.89q-.772-.565-1.525-1.157h6.755a6.265,6.265,0,0,0-.841-.815H678.214q-.705-.541-1.393-1.1H686.1v-.025l-1-.842H670.09l-2.077-1.209H693.2l1.919,3.128h0c.736-1,1.367-2.1,2.1-3.128h9.253c.684,1.052,1.394,2.1,2.077,3.155l1.918-3.155h25.21Z" transform="translate(-589.617 -347.173)" fill="#828282" fill-rule="evenodd"/>
  </g>
</svg>
