<svg xmlns="http://www.w3.org/2000/svg" width="187.711" height="46.729" viewBox="0 0 187.711 46.729">
  <g id="logo-jaeger-lecoultre" transform="translate(-332.474 -705.786)">
    <path id="Path_341" data-name="Path 341" d="M671.63,719.228a33.676,33.676,0,0,1-11.274,2.917v-12.22h4.809l-2.838-4.139-5.282.039L655.9,707.45l-1.143-1.625-5.282-.039-2.838,4.139h4.809v12.22a33.675,33.675,0,0,1-11.274-2.917l-3.548,4.888s.907.434,4.73,1.774l1.143-1.734a44.793,44.793,0,0,0,26.8,0l1.143,1.734c3.823-1.34,4.73-1.774,4.73-1.774Zm-16.162,5.952a42.762,42.762,0,0,1-13.284-2.129l-1.143,1.656a17.927,17.927,0,0,1-3-1.1l2.365-3.272a37.476,37.476,0,0,0,11.826,2.759V709.018h-4.06l1.7-2.365h4.375l1.222,1.774Zm14.152-2.129a42.763,42.763,0,0,1-13.284,2.129V708.427l1.222-1.774h4.376l1.7,2.365h-4.06v14.072a37.474,37.474,0,0,0,11.825-2.759l2.365,3.272a17.926,17.926,0,0,1-3,1.1Z" transform="translate(-229.333)" fill="#828282"/>
    <g id="Group_1388" data-name="Group 1388" transform="translate(332.474 727.766)">
      <path id="Path_342" data-name="Path 342" d="M516.1,805.961s-1.84,1-4.809,4.52h-1.787s-.473.131-.473-.473v-4.546a.35.35,0,0,1,.394-.42h1.34s.368-.053.657.552l.184.394a.489.489,0,0,0,.657.315s.526.079.368-.525-.026-.079-.026-.079l-.762-2.339a.414.414,0,0,0-.447-.315l-.368-.026s-.394-.026-.315.447a.4.4,0,0,1-.447.5h-.788s-.42.105-.42-.657v-1.34s-.079-.394.5-.394h2.733s.631-.21,1.025.683l.21.447s0,.447.631.315c0,0,.683.079.473-.552l-.5-1.524s-.026-.342-.473-.342h-7.8a.354.354,0,0,0-.447.394v.263s-.079.237.447.368c0,0,.578.026.578.789l-.052,7.437s0,.683-.447.815c0,0-.5-.158-.526.42,0,0-.21.473.5.5h3.758s.657-.026.315.42a12.1,12.1,0,0,1-3.889,3.705,9.258,9.258,0,0,1-4.573,1.078H349.966s-3.206.315-4.888-1.367l-2.549-2.812s-.21-.342.158-.447c0,0,3.127-.6,4.231-2.707a10.012,10.012,0,0,0,1.235-5.151v-7.043s-.105-.5.526-.525h.631s.315.131.315-.5v-.289s.21-.42-.394-.42h-5.44s-.394-.132-.421.368v.342s-.158.473.473.473h.447s.71-.105.683.788v8.514s.342,4.441-3.626,5.019c0,0-2.6-3.81-4.231-4.73,0,0-2.286-1.734-4.073-.131,0,0-1.761,2,.92,4.31A11.457,11.457,0,0,0,341,812.5s2.313,3.5,2.812,4.073a11.078,11.078,0,0,0,3.127,2.628c1.419.578,1.656.946,6.57.946H498.548s3.731.236,5.86-1.025a12.564,12.564,0,0,0,3.626-2.97l3.81-4.573s3.916.105,6.018-1.261c0,0,2.155-1.1,2.313-2.864S518.625,804.752,516.1,805.961Zm-179.223,4.756c-1.682-.762-1.209-1.892-1.209-1.892.368-.815,1.5-.263,1.5-.263a9.289,9.289,0,0,1,2.864,2.812A4.711,4.711,0,0,1,336.879,810.717Zm179.2-.867a7.47,7.47,0,0,1-3.521.657,15.606,15.606,0,0,1,1.892-2.1c1.209-1.051,2.024-.552,2.024-.552C517.626,808.9,516.076,809.85,516.076,809.85Z" transform="translate(-332.474 -795.42)" fill="#828282"/>
      <path id="Path_343" data-name="Path 343" d="M408.4,826.225s.026-.289-.42-.394c0,0-.5-.026-.788-.762l-3.022-8.883a.4.4,0,0,0-.453-.42h-2.391s-.335,0-.545.5l-3.364,8.961s.026.6-1.077.578a.384.384,0,0,0-.368.473v.315s-.053.341.466.341h2.891s.374.026.4-.289v-.315a.376.376,0,0,0-.342-.473s-.788-.105-.525-.814l.42-.972h4.73l.447,1.13s.184.552-.184.631c0,0-.552.026-.552.315v.394s-.158.394.545.394H408a.315.315,0,0,0,.427-.341Zm-5.124-3.364h-3c-.762,0-.368-.709-.368-.709l1.577-4.1c.315-.631.63,0,.63,0l1.314,4.021C403.745,823.072,403.272,822.861,403.272,822.861Z" transform="translate(-380.341 -810.692)" fill="#828282"/>
      <path id="Path_344" data-name="Path 344" d="M712.557,825.939h-1.787s-.473.131-.473-.473V820.92a.35.35,0,0,1,.394-.42h1.34s.368-.053.657.552l.184.394a.489.489,0,0,0,.657.315s.526.079.368-.525-.026-.079-.026-.079l-.762-2.339a.413.413,0,0,0-.447-.315l-.368-.026s-.394-.026-.315.447a.4.4,0,0,1-.447.5h-.788s-.421.105-.421-.657v-1.34s-.079-.394.5-.394h2.733s.631-.21,1.025.683l.21.447s0,.447.631.315c0,0,.683.079.473-.552l-.5-1.524s-.026-.341-.473-.341h-7.8a.354.354,0,0,0-.447.394v.263s-.079.237.447.368c0,0,.578.026.578.788l-.052,7.437s0,.683-.447.815c0,0-.5-.158-.526.42,0,0-.21.473.5.5h7.884a.393.393,0,0,0,.473-.236l.657-1.577s.237-.5-.263-.5h-.5a.332.332,0,0,0-.394.237l-.289.5s-.053.447-.815.473Z" transform="translate(-614.599 -810.906)" fill="#828282"/>
      <path id="Path_345" data-name="Path 345" d="M457.236,825.939h-1.787s-.473.131-.473-.473V820.92a.35.35,0,0,1,.394-.42h1.34s.368-.053.657.552l.184.394a.489.489,0,0,0,.657.315s.525.079.368-.525-.026-.079-.026-.079l-.762-2.339a.414.414,0,0,0-.447-.315l-.368-.026s-.394-.026-.315.447a.4.4,0,0,1-.447.5h-.788s-.42.105-.42-.657v-1.34s-.079-.394.5-.394h2.733s.631-.21,1.025.683l.21.447s0,.447.631.315c0,0,.683.079.473-.552l-.5-1.524s-.026-.341-.473-.341h-7.8a.354.354,0,0,0-.447.394v.263s-.079.237.447.368c0,0,.578.026.578.788l-.053,7.437s0,.683-.447.815c0,0-.5-.158-.525.42,0,0-.21.473.5.5h7.884a.393.393,0,0,0,.473-.236l.657-1.577s.236-.5-.263-.5h-.5a.332.332,0,0,0-.394.237l-.289.5s-.053.447-.815.473Z" transform="translate(-422.085 -810.906)" fill="#828282"/>
      <path id="Path_346" data-name="Path 346" d="M548.361,826.313h-1.787s-.473.131-.473-.473v-4.546a.35.35,0,0,1,.394-.42h1.34s.368-.053.657.552l.184.394a.489.489,0,0,0,.657.315s.525.079.368-.525-.026-.079-.026-.079l-.762-2.339a.414.414,0,0,0-.447-.315l-.368-.026s-.394-.026-.315.447a.4.4,0,0,1-.447.5h-.788s-.42.105-.42-.657V817.8s-.079-.394.5-.394h2.733s.63-.21,1.025.683l.21.447s0,.447.63.315c0,0,.683.079.473-.552l-.5-1.524s-.026-.341-.473-.341h-7.8a.354.354,0,0,0-.447.394v.263s-.079.237.447.368c0,0,.578.026.578.788l-.053,7.437s0,.683-.447.815c0,0-.5-.158-.526.42,0,0-.21.473.5.5h7.884a.394.394,0,0,0,.473-.237l.657-1.577s.237-.5-.263-.5h-.5a.332.332,0,0,0-.394.236l-.289.5s-.053.447-.815.473Z" transform="translate(-490.794 -811.187)" fill="#828282"/>
      <path id="Path_347" data-name="Path 347" d="M498.593,815.125a5.55,5.55,0,0,0-5.44,5.624c-.375,5.7,5.2,5.781,5.2,5.781a6.91,6.91,0,0,0,4.336-1.419,1.073,1.073,0,0,0,.394-.788l.105-1.051a.657.657,0,0,1,.71-.867.419.419,0,0,0,.368-.421V821.8s.026-.342-.578-.342H499.7s-.447-.079-.447.289v.263s-.026.368.447.368a.869.869,0,0,1,.972.893,2.082,2.082,0,0,1-2.234,2.313c-2.444,0-2.391-2.286-2.47-5.229-.078-2.916.841-4.336,2.838-4.31a3.217,3.217,0,0,1,2.891,2,.544.544,0,0,0,.6.315l.5-.21s.315.079.184-.394L502.3,815.6s-.007-.394-.374-.315a.378.378,0,0,0-.361.237s.085.6-.893.184A3.741,3.741,0,0,0,498.593,815.125Z" transform="translate(-453.614 -810.209)" fill="#828282"/>
      <path id="Path_348" data-name="Path 348" d="M599.112,826.491s.052-.289-.447-.315l-.223-.013s-.641.059-1.222-.854c0,0-1.465-2.779-2.385-3.41,0,0-.289-.217,0-.322a4.487,4.487,0,0,0,1.971-.946s.841-.342.815-2.05c0,0,.184-2.5-3.449-2.523H587.49a.354.354,0,0,0-.447.394v.263s-.079.237.447.368c0,0,.578.026.578.788l-.053,7.437s.059.8-.552.818c0,0-.532-.059-.493.453,0,0-.177.542.532.568h3.676s.542.1.552-.266l-.01-.421s.026-.333-.494-.335a.73.73,0,0,1-.557-.66v-3.075a.35.35,0,0,1,.394-.42v-.012l.745.009a1.575,1.575,0,0,1,1.422.87l1.623,3.049a2.172,2.172,0,0,0,1.866,1.261h2.1s.315.079.315-.368Zm-6.08-5.568-1.915-.028h-.056v0c-.114,0-.364-.073-.364-.662v-2.812s-.077-.389.49-.394l2.2.052a1.734,1.734,0,0,1,1.787,1.682A1.884,1.884,0,0,1,593.031,820.923Z" transform="translate(-524.351 -810.906)" fill="#828282"/>
      <path id="Path_349" data-name="Path 349" d="M995.673,826.491s.053-.289-.447-.315l-.223-.013s-.641.059-1.222-.854c0,0-1.465-2.779-2.385-3.41,0,0-.289-.217,0-.322a4.485,4.485,0,0,0,1.971-.946s.841-.342.815-2.05c0,0,.184-2.5-3.449-2.523h-6.681a.354.354,0,0,0-.447.394v.263s-.079.237.447.368c0,0,.578.026.578.788l-.053,7.437s.059.8-.552.818c0,0-.532-.059-.493.453,0,0-.177.542.532.568h3.676s.542.1.552-.266l-.01-.421s.026-.333-.494-.335a.729.729,0,0,1-.557-.66v-3.075a.35.35,0,0,1,.394-.42v-.012l.745.009a1.575,1.575,0,0,1,1.422.87l1.623,3.049a2.173,2.173,0,0,0,1.866,1.261h2.1s.315.079.315-.368Zm-6.08-5.568-1.915-.028h-.056v0c-.114,0-.364-.073-.364-.662v-2.812s-.077-.389.49-.394l2.2.052a1.734,1.734,0,0,1,1.787,1.682A1.884,1.884,0,0,1,989.592,820.923Z" transform="translate(-823.361 -810.906)" fill="#828282"/>
      <rect id="Rectangle_954" data-name="Rectangle 954" width="5.177" height="1.84" rx="0.92" transform="translate(75.516 9.699)" fill="#828282"/>
      <path id="Path_350" data-name="Path 350" d="M667.594,815.766s-.325.026-.325.322v.335s-.049.4.463.315a.753.753,0,0,1,.848.788v7.637s.079.571-.591.591c0,0-.434-.02-.453.315v.444s0,.394.355.42h7.1s.237.112.512-.44l.71-1.557s.177-.433-.237-.433h-.512a.423.423,0,0,0-.374.236l-.256.493a.9.9,0,0,1-.926.512h-2.109s-.621.079-.63-.512v-7.746s-.079-.709.532-.729h.3s.286.039.276-.375v-.276s.059-.342-.374-.342Z" transform="translate(-584.911 -810.692)" fill="#828282"/>
      <path id="Path_351" data-name="Path 351" d="M907.745,815.766s-.325.026-.325.322v.335s-.049.4.463.315a.753.753,0,0,1,.848.788v7.637s.079.571-.591.591c0,0-.434-.02-.453.315v.444s0,.394.355.42h7.1s.237.112.512-.44l.71-1.557s.177-.433-.237-.433h-.512a.423.423,0,0,0-.374.236l-.256.493a.9.9,0,0,1-.926.512h-2.109s-.621.079-.63-.512v-7.746s-.079-.709.532-.729h.3s.285.039.276-.375v-.276s.059-.342-.375-.342Z" transform="translate(-765.986 -810.692)" fill="#828282"/>
      <path id="Path_352" data-name="Path 352" d="M756.686,795.141s-7.016-.368-7.1,8.278c0,0-.315,7.542,6.938,7.91a5.911,5.911,0,0,0,3.18-.841s.473-.21.578.184a.562.562,0,0,0,.631.473s.552-.026.6-.526l.972-2.969s.184-.5-.236-.5l-.368-.026a.53.53,0,0,0-.447.368,4.879,4.879,0,0,1-1.156,1.656,4.106,4.106,0,0,1-3.232,1.1s-4.2.105-4.047-6.833c0,0-.368-7.174,4.178-7.148a4.464,4.464,0,0,1,3.758,2.181.748.748,0,0,0,.657.447h.447s.368.026.237-.578l-.71-2.733s-.079-.341-.368-.341h-.526a.307.307,0,0,0-.184.368s.079.342-.105.447c0,0-.131.21-.5,0A6.525,6.525,0,0,0,756.686,795.141Z" transform="translate(-646.982 -795.139)" fill="#828282"/>
      <g id="Group_1387" data-name="Group 1387" transform="translate(116.721 4.962)">
        <path id="Path_353" data-name="Path 353" d="M818.905,846.938l.006.032Z" transform="translate(-815.968 -839.158)" fill="#828282"/>
        <path id="Path_354" data-name="Path 354" d="M818.054,820.864c-.131-5.571-5.545-5.552-5.545-5.552s-5.413-.02-5.545,5.552c0,0-.079,5.492,5.545,5.729C818.133,826.356,818.054,820.864,818.054,820.864ZM815.11,823.2c-.5,2.733-2.6,2.332-2.6,2.332s-2.1.4-2.6-2.332c-.467-2.556-.06-.4-.006-.11a14.2,14.2,0,0,1,.137-5.145,2.637,2.637,0,0,1,4.94,0,14.2,14.2,0,0,1,.138,5.145C815.171,822.8,815.577,820.647,815.11,823.2Z" transform="translate(-806.964 -815.312)" fill="#828282"/>
        <path id="Path_355" data-name="Path 355" d="M840.087,846.938l-.006.032Z" transform="translate(-831.934 -839.158)" fill="#828282"/>
      </g>
      <path id="Path_356" data-name="Path 356" d="M857.094,815.766s-.374.007-.374.322v.335s-.02.335.473.335l.236-.02s.493-.079.493.749V823.1a4.223,4.223,0,0,0,4.553,3.883s4.474.236,4.336-4.021v-5.578a.563.563,0,0,1,.572-.67h.2a.265.265,0,0,0,.256-.3v-.3a.275.275,0,0,0-.3-.361h-2.621s-.355-.013-.355.283l-.02.256a.34.34,0,0,0,.375.414s.709-.118.729.828v5.459s.276,2.858-2.306,2.858c0,0-2.878.493-2.878-3.035v-5.479s.079-.611.631-.631h.158s.256.039.276-.335v-.276s.079-.335-.256-.342Z" transform="translate(-727.759 -810.692)" fill="#828282"/>
      <path id="Path_357" data-name="Path 357" d="M937.258,815.766a.507.507,0,0,0-.457.289l-.683,1.656s-.171.368.237.368h.526s.2.079.407-.3l.381-.749a.663.663,0,0,1,.549-.25h1.577s.463-.066.476.578v7.949s.079.552-.25.6H939.6a.292.292,0,0,0-.25.289v.42s-.056.315.312.315h4.086s.279.053.279-.289v-.315s.066-.394-.237-.394l-.486-.013s-.512.132-.46-.749v-7.792s-.161-.6.444-.6h1.564s.306-.092.542.328l.381.657a.66.66,0,0,0,.512.315h.5s.368,0,.21-.42L946.3,816s-.026-.237-.555-.237Z" transform="translate(-787.599 -810.692)" fill="#828282"/>
    </g>
  </g>
</svg>
