<svg xmlns="http://www.w3.org/2000/svg" width="169.319" height="24.029" viewBox="0 0 169.319 24.029">
  <g id="logo-graff" transform="translate(975.4 -86)">
    <path id="Path_318" data-name="Path 318" d="M-959.952,97.861h5.034v.348h-.18c-.707,0-1.162,1.163-1.162,1.834v9.444a21.622,21.622,0,0,1-6.628.983c-8.5,0-12.512-6.208-12.512-12.021,0-5.86,3.979-11.949,12.692-11.949a18.428,18.428,0,0,1,4.159.6,7.641,7.641,0,0,0,1.378.288h.312v3.739h-.36c-.563-2.924-3.559-3.38-5.645-3.38-7.083,0-10.187,5.465-10.187,10.367,0,5.465,4.3,11.11,10.786,11.11a7.531,7.531,0,0,0,3.631-.887v-8.281c0-.671-.419-1.834-1.162-1.834h-.18v-.36Z" transform="translate(0 -0.44)" fill="#828282"/>
    <path id="Path_319" data-name="Path 319" d="M-626.826,112.5v.36H-631.8v-.36h.18c.707,0,1.127-1.234,1.127-1.942V91.781c0-.671-.419-1.834-1.127-1.834h-.18V89.6h6.136c4.686,0,7.37,1.87,7.37,5.429s-2.5,5.321-5.5,5.884l2.541,3.871c1.234,1.87,2.5,3.631,3.739,5.573.671.947,1.582,2.145,2.649,2.145v.36h-1.51a4.407,4.407,0,0,1-3.811-2.289c-2.121-3.1-4.195-6.34-6.28-9.444a13.021,13.021,0,0,1-1.654-.216v9.66c0,.707.419,1.942,1.127,1.942h.168Zm-1.306-21.716v8.953h.18c.383.036,1.2.072,2.433.072a4.522,4.522,0,0,0,4.794-4.65c0-3.559-2.816-4.374-6.879-4.374Z" transform="translate(-302.421 -3.169)" fill="#828282"/>
    <path id="Path_320" data-name="Path 320" d="M-326.427,109.334h.18c.563,0,.839-.252.839-.779a1.924,1.924,0,0,0-.108-.6l-3.176-8.569h-6.172l-3.068,8.425a1.43,1.43,0,0,0-.108.527.887.887,0,0,0,.779.983h.18v.36H-341v-.36h.18c.6,0,1.234-.839,1.618-1.834L-331.125,86l7.9,21.285c.312.959.875,2.049,1.834,2.049h.18v.36h-5.213v-.36ZM-334.5,98.2h5.429l-2.709-7.371Z" transform="translate(-558.37 0)" fill="#828282"/>
    <path id="Path_321" data-name="Path 321" d="M15.346,112.415v.36H10.3v-.36h.18c.743,0,1.163-1.163,1.163-1.87V91.693c0-.671-.384-1.834-1.163-1.834H10.3V89.5H24.67v3.284h-.348a2.009,2.009,0,0,0-2.253-2.049H14v8.917h6.7A1.8,1.8,0,0,0,22.608,98h.36v4.41h-.36a1.719,1.719,0,0,0-1.906-1.558H14v9.7c0,.707.419,1.87,1.163,1.87Z" transform="translate(-867.567 -3.081)" fill="#828282"/>
    <path id="Path_322" data-name="Path 322" d="M322.546,112.415v.36H317.5v-.36h.18c.743,0,1.163-1.163,1.163-1.87V91.693c0-.671-.384-1.834-1.163-1.834h-.18V89.5h14.37v3.284h-.348a2.009,2.009,0,0,0-2.253-2.049H321.2v8.917h6.7A1.8,1.8,0,0,0,329.808,98h.348v4.41h-.348a1.719,1.719,0,0,0-1.906-1.558h-6.7v9.7c0,.707.419,1.87,1.163,1.87Z" transform="translate(-1137.951 -3.081)" fill="#828282"/>
  </g>
</svg>
