<svg xmlns="http://www.w3.org/2000/svg" width="101.269" height="56.5" viewBox="0 0 101.269 56.5">
  <g id="logo-tudor" transform="translate(-151.519 -78.955)">
    <path id="Path_323" data-name="Path 323" d="M245.688,89.328V84.119a9.964,9.964,0,0,1-6.3-.22v5.429h6.3m-9.681,0V83.9a9.975,9.975,0,0,1-6.3.22v5.209Zm12.458,3.138A18.918,18.918,0,0,1,237.7,109.032,18.92,18.92,0,0,1,226.93,92.466V78.955a7.132,7.132,0,0,0,10.029,1.168,7.637,7.637,0,0,0,.739-.675,7.132,7.132,0,0,0,10.092.247,6.564,6.564,0,0,0,.675-.74Zm-2.855,0H229.785a16.007,16.007,0,0,0,7.912,13.3A16.006,16.006,0,0,0,245.609,92.466Z" transform="translate(-35.543)" fill="#828282"/>
    <path id="Path_324" data-name="Path 324" d="M198.08,167.375a5.186,5.186,0,0,0,1.337-.111,3.494,3.494,0,0,0,2.751-3.041v-9.391a.427.427,0,0,0-.052-.2.917.917,0,0,0-.642-.467,12.185,12.185,0,0,0-1.479-.272,2.463,2.463,0,0,0-.257-.014h-.457V152.1h8.087v1.773h-.192a2.418,2.418,0,0,0-.256.014,12.166,12.166,0,0,0-1.479.272.917.917,0,0,0-.642.467.428.428,0,0,0-.053.2v9.391a4.268,4.268,0,0,1-.291,1.56,5.887,5.887,0,0,1-3.354,3.36,10.939,10.939,0,0,1-6.66,0,5.107,5.107,0,0,1-3.209-2.622,4.3,4.3,0,0,1-.463-1.942v-9.747a.445.445,0,0,0-.052-.2.921.921,0,0,0-.642-.467,11.9,11.9,0,0,0-1.611-.285V152.1h8.261v1.773a11.927,11.927,0,0,0-1.613.285.907.907,0,0,0-.64.467.422.422,0,0,0-.054.2v9.441a3.048,3.048,0,0,0,2.274,2.936,5.967,5.967,0,0,0,1.39.167" transform="translate(-17.412 -34.475)" fill="#828282"/>
    <path id="Path_325" data-name="Path 325" d="M155.014,169.289v-1.975h.048c.479-.015.958-.03,1.437-.046a4.043,4.043,0,0,0,.923-.138.67.67,0,0,0,.4-.556V154.088h-.936a6.093,6.093,0,0,0-.946.072,2.141,2.141,0,0,0-1.319.736,6.8,6.8,0,0,0-1.363,2.6h-1.743V152.1h16.225v5.394H166a6.822,6.822,0,0,0-1.361-2.6,2.148,2.148,0,0,0-1.319-.736,6.132,6.132,0,0,0-.946-.072h-.938v12.486a.669.669,0,0,0,.4.556,4.021,4.021,0,0,0,.924.138c.477.016.957.031,1.436.046h.048v1.975h-9.235" transform="translate(0 -34.475)" fill="#828282"/>
    <path id="Path_326" data-name="Path 326" d="M238.638,152.1a13.4,13.4,0,0,1,4.954,1.129,8.317,8.317,0,0,1,3.939,10.888,9.873,9.873,0,0,1-8.005,5.172h-9.054V167.58c.466-.011.934-.042,1.4-.087.179-.023.357-.052.538-.088a1.008,1.008,0,0,0,.339-.128.918.918,0,0,0,.143-.578V154.867a1.1,1.1,0,0,0-.01-.2.864.864,0,0,0-.472-.661,2.315,2.315,0,0,0-.55-.189c-.458-.081-.922-.146-1.387-.2V152.1h8.167m-2.154,1.918a.913.913,0,0,0-.156.573L236.3,166.7a.926.926,0,0,0,.144.578,1.008,1.008,0,0,0,.341.128c.179.035.357.064.538.088.465.026.931.037,1.4.031a4.957,4.957,0,0,0,4.666-2.288,9.2,9.2,0,0,0-.093-8.7,5.9,5.9,0,0,0-4.524-2.716c-.467-.015-.934-.012-1.4,0-.182.017-.361.042-.541.073A.989.989,0,0,0,236.484,154.019Z" transform="translate(-37.212 -34.475)" fill="#828282"/>
    <path id="Path_327" data-name="Path 327" d="M278.39,150.9a9.233,9.233,0,1,1-9.25,9.232,9.238,9.238,0,0,1,9.25-9.232m3.91,14.322a11.588,11.588,0,0,0,0-10.183,4.667,4.667,0,0,0-7.822,0,11.593,11.593,0,0,0,0,10.183,4.663,4.663,0,0,0,7.822,0Z" transform="translate(-55.437 -33.907)" fill="#828282"/>
    <path id="Path_328" data-name="Path 328" d="M319.686,159.591a2.724,2.724,0,0,0,2.031-2.239,2.789,2.789,0,0,0-2.327-3.191,1.189,1.189,0,0,0-.169-.023,15.563,15.563,0,0,0-2.378-.187h-3.414v5.876h4.389a8.643,8.643,0,0,0,1.868-.237m-3.369,2.23h-2.888v4.772a.608.608,0,0,0,.224.458.881.881,0,0,0,.117.066,2.437,2.437,0,0,0,.584.128c.459.062.916.118,1.377.166v1.877h-7.916v-1.9l1.385-.142a2.411,2.411,0,0,0,.585-.128.767.767,0,0,0,.117-.066.585.585,0,0,0,.22-.458l0-11.811a.576.576,0,0,0-.18-.471.357.357,0,0,0-.109-.074,2.307,2.307,0,0,0-.571-.183q-.726-.133-1.452-.288V152.1h12.271a4.276,4.276,0,0,1,2.38.724,4.97,4.97,0,0,1-2.421,9.09l3.381,4.574a1.7,1.7,0,0,0,1.135.679q.948.129,1.893.22v1.9h-4.915Z" transform="translate(-73.665 -34.475)" fill="#828282"/>
  </g>
</svg>
