<svg xmlns="http://www.w3.org/2000/svg" width="161.975" height="17.558" viewBox="0 0 161.975 17.558">
  <g id="logo-panerai" transform="translate(-286.477 -292.577)">
    <g id="Group_1374" data-name="Group 1374" transform="translate(286.477 292.577)">
      <path id="Path_298" data-name="Path 298" d="M298.052,292.577H286.477v17.558H290v-7.2h8.056a10.443,10.443,0,0,0,5.984-1.368,4.544,4.544,0,0,0,0-7.626A10.674,10.674,0,0,0,298.052,292.577ZM290,294.532h6.844c3.832,0,5.748,1.056,5.748,3.246,0,2.151-1.916,3.206-5.748,3.206H290Z" transform="translate(-286.477 -292.577)" fill="#828282"/>
    </g>
    <g id="Group_1375" data-name="Group 1375" transform="translate(307.008 292.577)">
      <path id="Path_299" data-name="Path 299" d="M329.185,292.577h-3.872l-10.284,17.558h3.6l2.972-5.28h11.145l2.894,5.28h3.833Zm-2.034,2.072h.078l4.38,8.213h-8.917Z" transform="translate(-315.028 -292.577)" fill="#828282"/>
    </g>
    <g id="Group_1376" data-name="Group 1376" transform="translate(336.493 292.577)">
      <path id="Path_300" data-name="Path 300" d="M359.356,296.018h.078L373.2,310.135h3.832V292.577h-3.324v14.234h-.078l-13.883-14.234h-3.716v17.558h3.324Z" transform="translate(-356.032 -292.577)" fill="#828282"/>
    </g>
    <g id="Group_1377" data-name="Group 1377" transform="translate(365.627 292.577)">
      <path id="Path_301" data-name="Path 301" d="M414.731,294.532v-1.955H396.547v17.558h18.3v-1.994H400.066V302.08h13.688v-1.955H400.066v-5.592Z" transform="translate(-396.547 -292.577)" fill="#828282"/>
    </g>
    <g id="Group_1378" data-name="Group 1378" transform="translate(390.655 292.577)">
      <path id="Path_302" data-name="Path 302" d="M450.67,299.968a4,4,0,0,0,1.094-2.776,3.81,3.81,0,0,0-2.151-3.363,11.468,11.468,0,0,0-5.866-1.251h-12.4v17.558h3.519v-7.508H443.4a4.942,4.942,0,0,1,3.362.938,4.234,4.234,0,0,1,1.056,2.23,18.53,18.53,0,0,1,.314,2.542,2.354,2.354,0,0,0,.626,1.8H452.7a3.521,3.521,0,0,1-1.251-2.228l-.313-2.62a4.2,4.2,0,0,0-.939-2.308,4.419,4.419,0,0,0-3.01-1.29v-.078A6.32,6.32,0,0,0,450.67,299.968Zm-7.079-5.436a6.144,6.144,0,0,1,3.559.86,2.4,2.4,0,0,1,1.1,2.112c0,2.111-2.034,3.128-6.062,3.128h-7.312v-6.1Z" transform="translate(-431.352 -292.577)" fill="#828282"/>
    </g>
    <g id="Group_1379" data-name="Group 1379" transform="translate(415.29 292.577)">
      <path id="Path_303" data-name="Path 303" d="M479.769,292.577H475.9l-10.285,17.558h3.6l2.973-5.28h11.106l2.894,5.28h3.872Zm-2.034,2.072h.078l4.38,8.213h-8.916Z" transform="translate(-465.612 -292.577)" fill="#828282"/>
    </g>
    <g id="Group_1380" data-name="Group 1380" transform="translate(444.933 292.577)">
      <path id="Path_304" data-name="Path 304" d="M510.353,292.577h-3.519v17.558h3.519Z" transform="translate(-506.834 -292.577)" fill="#828282"/>
    </g>
  </g>
</svg>
